<?xml version="1.0" standalone="no"?>
<!DOCTYPE svg PUBLIC "-//W3C//DTD SVG 1.1//EN" "http://www.w3.org/Graphics/SVG/1.1/DTD/svg11.dtd" >
<svg xmlns="http://www.w3.org/2000/svg" xmlns:xlink="http://www.w3.org/1999/xlink" version="1.1">
<metadata></metadata>
<defs>
<font id="noticia_textbold" horiz-adv-x="1266" >
<font-face units-per-em="0" ascent="0" descent="0" />
<missing-glyph horiz-adv-x="550" />
<glyph unicode="&#xd;" horiz-adv-x="0" />
<glyph unicode=" "  horiz-adv-x="550" />
<glyph unicode="&#x09;" horiz-adv-x="550" />
<glyph unicode="&#xa0;" horiz-adv-x="550" />
<glyph unicode="!" horiz-adv-x="642" d="M0 0v0v0v0v0v0v0v0v0v0v0v0v0v0v0v0v0zM0 0v0v0v0v0v0z" />
<glyph unicode="&#x22;" horiz-adv-x="664" d="M0 0v0v0v0v0v0zM0 0v0v0v0v0v0z" />
<glyph unicode="#" horiz-adv-x="1387" d="M0 0v0v0v0v0v0v0v0v0v0v0v0v0v0v0v0v0v0v0v0v0v0v0v0v0v0v0v0v0v0v0v0v0zM0 0v0v0v0v0z" />
<glyph unicode="$" horiz-adv-x="1130" d="M0 0v0v0v0v0v0v0v0v0v0v0v0v0v0v0v0v0v0v0v0v0v0v0v0v0v0v0v0v0v0v0v0v0zM0 0v0v0v0v0v0v0zM0 0v0v0v0v0v0v0z" />
<glyph unicode="%" horiz-adv-x="1693" d="M0 0v0v0v0v0v0v0zM0 0v0v0v0v0v0v0v0v0v0v0v0v0v0v0v0v0zM0 0v0v0v0v0v0v0v0v0v0v0v0v0zM0 0v0v0v0v0v0v0v0v0v0v0v0v0v0v0v0v0zM0 0v0v0v0v0v0v0v0v0v0v0v0v0z" />
<glyph unicode="&#x26;" horiz-adv-x="1581" d="M0 0v0v0v0v0v0v0v0v0v0v0v0v0v0v0v0v0v0v0v0v0v0v0v0v0v0v0v0v0v0v0v0v0v0v0v0v0v0v0v0v0v0v0v0v0v0v0v0v0v0v0v0zM0 0v0v0v0v0v0v0v0v0v0v0zM0 0v0v0v0v0v0v0v0v0v0v0v0v0v0v0z" />
<glyph unicode="'" horiz-adv-x="386" d="M0 0v0v0v0v0v0z" />
<glyph unicode="(" horiz-adv-x="743" d="M0 0v0v0v0v0v0v0v0v0v0v0v0v0v0v0v0v0v0v0v0v0v0v0z" />
<glyph unicode=")" horiz-adv-x="743" d="M0 0v0v0v0v0v0v0v0v0v0v0v0v0v0v0v0v0v0v0v0v0v0v0z" />
<glyph unicode="*" horiz-adv-x="895" d="M0 0v0v0v0v0v0v0v0v0v0v0v0v0v0v0v0v0v0v0v0v0v0v0v0v0v0v0v0v0v0v0z" />
<glyph unicode="+" horiz-adv-x="1103" d="M0 0v0v0v0v0v0v0v0v0v0v0v0v0z" />
<glyph unicode="," horiz-adv-x="596" d="M0 0v0v0v0v0v0v0v0v0v0v0v0v0v0v0v0v0v0v0v0v0v0v0v0v0v0z" />
<glyph unicode="-" horiz-adv-x="1053" d="M0 0v0v0v0v0z" />
<glyph unicode="." horiz-adv-x="566" d="M0 0v0v0v0v0v0v0v0v0v0v0v0v0v0v0v0v0z" />
<glyph unicode="/" horiz-adv-x="883" d="M0 0v0v0v0v0v0v0z" />
<glyph unicode="0" horiz-adv-x="1236" d="M0 0v0v0v0v0v0v0v0v0v0v0zM0 0v0v0v0v0v0v0v0v0v0v0z" />
<glyph unicode="1" horiz-adv-x="826" d="M0 0v0v0v0v0v0v0v0v0v0v0v0z" />
<glyph unicode="2" horiz-adv-x="1080" d="M0 0v0v0v0v0v0v0v0v0v0v0v0v0v0v0v0v0v0v0v0v0v0v0v0v0v0v0z" />
<glyph unicode="3" horiz-adv-x="1013" d="M0 0v0v0v0v0v0v0v0v0v0v0v0v0v0v0v0v0v0v0v0v0v0v0v0v0v0v0v0v0v0v0v0v0v0z" />
<glyph unicode="4" horiz-adv-x="1053" d="M0 0v0v0v0v0v0v0v0v0v0v0v0v0v0v0v0v0v0v0v0v0z" />
<glyph unicode="5" horiz-adv-x="1078" d="M0 0v0v0v0v0v0v0v0v0v0v0v0v0v0v0v0v0v0v0v0v0v0v0v0v0v0z" />
<glyph unicode="6" horiz-adv-x="1111" d="M0 0v0v0v0v0v0v0v0v0v0v0v0v0v0v0v0v0v0v0v0v0zM0 0v0v0v0v0v0v0v0v0v0v0z" />
<glyph unicode="7" horiz-adv-x="951" d="M0 0v0v0v0v0v0v0v0v0v0v0z" />
<glyph unicode="8" horiz-adv-x="1080" d="M0 0v0v0v0v0v0v0v0v0v0v0v0v0v0v0v0v0zM0 0v0v0v0v0v0v0v0v0v0zM0 0v0v0v0v0v0v0v0v0z" />
<glyph unicode="9" horiz-adv-x="1088" d="M0 0v0v0v0v0v0v0v0v0v0v0zM0 0v0v0v0v0v0v0v0v0v0v0v0v0v0v0v0v0v0v0v0v0z" />
<glyph unicode=":" horiz-adv-x="566" d="M0 0v0v0v0v0v0v0v0v0v0v0v0v0v0v0v0v0zM0 0v0v0v0v0v0v0v0v0v0v0v0v0v0v0v0v0z" />
<glyph unicode=";" horiz-adv-x="596" d="M0 0v0v0v0v0v0v0v0v0v0v0v0v0v0v0v0v0zM0 0v0v0v0v0v0v0v0v0v0v0v0v0v0v0v0v0v0v0v0v0v0v0v0v0v0z" />
<glyph unicode="&#x3c;" horiz-adv-x="1168" d="M0 0v0v0v0v0v0v0v0v0v0v0z" />
<glyph unicode="=" horiz-adv-x="1162" d="M0 0v0v0v0v0zM0 0v0v0v0v0z" />
<glyph unicode="&#x3e;" horiz-adv-x="1168" d="M0 0v0v0v0v0v0v0v0v0v0v0z" />
<glyph unicode="?" horiz-adv-x="1039" d="M0 0v0v0v0v0v0v0v0v0v0v0v0v0v0v0v0v0v0v0v0v0v0v0v0v0v0v0v0v0v0v0v0v0v0v0v0v0v0v0v0v0v0v0v0v0v0v0zM0 0v0v0v0v0v0v0v0v0v0v0v0v0v0v0v0v0z" />
<glyph unicode="@" horiz-adv-x="2030" d="M0 0v0v0v0v0v0v0v0v0v0v0v0v0v0v0zM0 0v0v0v0v0v0v0v0v0v0v0v0v0v0v0v0v0v0v0v0v0v0v0v0v0v0v0v0v0v0v0v0v0v0v0v0v0v0v0z" />
<glyph unicode="A" d="M0 0v0v0v0v0v0v0v0v0v0v0v0v0v0v0v0v0zM0 0v0v0v0v0z" />
<glyph unicode="B" horiz-adv-x="1234" d="M0 0v0v0v0v0v0v0v0v0v0v0v0v0v0v0v0v0zM0 0v0v0v0v0v0v0v0v0v0zM0 0v0v0v0v0v0v0v0v0v0z" />
<glyph unicode="C" horiz-adv-x="1186" d="M0 0v0v0v0v0v0v0v0v0v0v0v0v0v0v0v0v0v0v0v0v0v0v0v0v0z" />
<glyph unicode="D" horiz-adv-x="1428" d="M0 0v0v0v0v0v0v0v0v0v0v0v0v0zM0 0v0v0v0v0v0v0v0v0v0v0z" />
<glyph unicode="E" horiz-adv-x="1203" d="M0 0v0v0v0v0v0v0v0v0v0v0v0v0v0v0v0v0v0v0v0v0v0v0v0v0z" />
<glyph unicode="F" horiz-adv-x="1083" d="M0 0v0v0v0v0v0v0v0v0v0v0v0v0v0v0v0v0v0v0v0v0v0v0z" />
<glyph unicode="G" horiz-adv-x="1330" d="M0 0v0v0v0v0v0v0v0v0v0v0v0v0v0v0v0v0v0v0v0v0v0v0v0v0v0v0v0v0v0v0z" />
<glyph unicode="H" horiz-adv-x="1541" d="M0 0v0v0v0v0v0v0v0v0v0v0v0v0v0v0v0v0v0v0v0v0v0v0v0v0v0v0v0v0z" />
<glyph unicode="I" horiz-adv-x="717" d="M0 0v0v0v0v0v0v0v0v0v0v0v0v0z" />
<glyph unicode="J" horiz-adv-x="897" d="M0 0v0v0v0v0v0v0v0v0v0v0v0v0v0v0v0v0v0v0v0z" />
<glyph unicode="K" horiz-adv-x="1394" d="M0 0v0v0v0v0v0v0v0v0v0v0v0v0v0v0v0v0v0v0v0v0v0v0v0v0v0v0v0z" />
<glyph unicode="L" horiz-adv-x="1066" d="M0 0v0v0v0v0v0v0v0v0v0v0v0v0v0v0z" />
<glyph unicode="M" horiz-adv-x="2011" d="M0 0v0v0v0v0v0v0v0v0v0v0v0v0v0v0v0v0v0v0v0v0v0v0v0v0v0v0v0v0z" />
<glyph unicode="N" horiz-adv-x="1579" d="M0 0v0v0v0v0v0v0v0v0v0v0v0v0v0v0v0v0v0v0v0v0v0v0z" />
<glyph unicode="O" horiz-adv-x="1407" d="M0 0v0v0v0v0v0v0v0v0v0v0zM0 0v0v0v0v0v0v0v0v0v0v0v0v0v0v0z" />
<glyph unicode="P" horiz-adv-x="1166" d="M0 0v0v0v0v0v0v0v0v0v0v0v0v0v0v0v0zM0 0v0v0v0v0v0v0v0v0v0z" />
<glyph unicode="Q" horiz-adv-x="1438" d="M0 0v0v0v0v0v0v0v0v0v0v0v0v0v0v0v0v0v0v0v0v0v0zM0 0v0v0v0v0v0v0v0v0v0v0v0v0v0v0v0v0v0zM0 0v0v0v0v0v0v0v0v0v0v0v0z" />
<glyph unicode="R" horiz-adv-x="1281" d="M0 0v0v0v0v0v0v0v0v0v0v0v0v0v0v0v0v0v0v0v0v0v0zM0 0v0v0v0v0v0v0v0v0v0z" />
<glyph unicode="S" horiz-adv-x="1130" d="M0 0v0v0v0v0v0v0v0v0v0v0v0v0v0v0v0v0v0v0v0v0v0v0v0v0v0v0v0v0v0v0v0v0v0v0z" />
<glyph unicode="T" horiz-adv-x="1207" d="M0 0v0v0v0v0v0v0v0v0v0v0v0v0v0v0v0v0z" />
<glyph unicode="U" horiz-adv-x="1400" d="M0 0v0v0v0v0v0v0v0v0v0v0v0v0v0v0v0v0v0v0v0v0v0v0v0v0z" />
<glyph unicode="V" horiz-adv-x="1258" d="M0 0v0v0v0v0v0v0v0v0v0v0v0v0v0v0v0v0z" />
<glyph unicode="W" horiz-adv-x="2082" d="M0 0v0v0v0v0v0v0v0v0v0v0v0v0v0v0v0v0v0v0v0v0v0v0v0v0v0z" />
<glyph unicode="X" horiz-adv-x="1351" d="M0 0v0v0v0v0v0v0v0v0v0v0v0v0v0v0v0v0v0v0v0v0v0v0v0v0v0v0v0v0z" />
<glyph unicode="Y" horiz-adv-x="1172" d="M0 0v0v0v0v0v0v0v0v0v0v0v0v0v0v0v0v0v0v0v0v0v0z" />
<glyph unicode="Z" horiz-adv-x="1165" d="M0 0v0v0v0v0v0v0v0v0v0v0v0v0v0v0v0v0z" />
<glyph unicode="[" horiz-adv-x="678" d="M0 0v0v0v0v0v0v0v0v0z" />
<glyph unicode="\" horiz-adv-x="883" d="M0 0v0v0v0v0v0v0z" />
<glyph unicode="]" horiz-adv-x="678" d="M0 0v0v0v0v0v0v0v0v0z" />
<glyph unicode="^" horiz-adv-x="1104" d="M0 0v0v0v0v0v0v0v0v0v0v0z" />
<glyph unicode="_" horiz-adv-x="1176" d="M0 0v0v0v0v0z" />
<glyph unicode="`" horiz-adv-x="888" d="M0 0v0v0v0v0v0v0z" />
<glyph unicode="a" horiz-adv-x="1188" d="M0 0v0v0v0v0v0v0v0v0v0v0v0v0v0v0v0v0v0v0v0v0v0v0v0zM0 0v0v0v0v0v0v0v0v0v0z" />
<glyph unicode="b" horiz-adv-x="1206" d="M0 0v0v0v0v0v0v0v0v0v0v0v0v0v0v0v0zM0 0v0v0v0v0v0v0v0v0v0v0v0v0z" />
<glyph unicode="c" horiz-adv-x="992" d="M0 0v0v0v0v0v0v0v0v0v0v0v0v0v0v0v0v0v0v0v0v0v0v0v0v0z" />
<glyph unicode="d" horiz-adv-x="1242" d="M0 0v0v0v0v0v0v0v0v0v0v0v0v0v0v0v0v0v0v0zM0 0v0v0v0v0v0v0v0v0v0v0v0v0z" />
<glyph unicode="e" horiz-adv-x="1078" d="M0 0v0v0v0v0v0v0v0v0v0v0v0v0v0v0v0v0v0zM0 0v0v0v0v0v0v0v0z" />
<glyph unicode="f" horiz-adv-x="757" d="M0 0v0v0v0v0v0v0v0v0v0v0v0v0v0v0v0v0v0v0v0v0v0v0v0v0z" />
<glyph unicode="g" horiz-adv-x="1092" d="M0 0v0v0v0v0v0v0v0v0v0v0v0v0v0v0v0v0v0v0v0v0v0v0v0v0v0v0v0v0v0v0v0v0v0v0v0zM0 0v0v0v0v0v0v0v0v0v0v0v0v0zM0 0v0v0v0v0v0v0v0v0v0v0v0v0v0v0z" />
<glyph unicode="h" horiz-adv-x="1378" d="M0 0v0v0v0v0v0v0v0v0v0v0v0v0v0v0v0v0v0v0v0v0v0v0v0v0v0v0v0z" />
<glyph unicode="i" horiz-adv-x="696" d="M0 0v0v0v0v0v0v0v0v0v0v0zM0 0v0v0v0v0v0v0v0v0z" />
<glyph unicode="j" horiz-adv-x="656" d="M0 0v0v0v0v0v0v0v0v0v0v0v0v0v0v0zM0 0v0v0v0v0v0v0v0v0z" />
<glyph unicode="k" horiz-adv-x="1274" d="M0 0v0v0v0v0v0v0v0v0v0v0v0v0v0v0v0v0v0v0v0v0v0v0v0v0v0z" />
<glyph unicode="l" horiz-adv-x="664" d="M0 0v0v0v0v0v0v0v0v0v0v0z" />
<glyph unicode="m" horiz-adv-x="2094" d="M0 0v0v0v0v0v0v0v0v0v0v0v0v0v0v0v0v0v0v0v0v0v0v0v0v0v0v0v0v0v0v0v0v0v0v0v0v0v0v0v0v0v0z" />
<glyph unicode="n" horiz-adv-x="1392" d="M0 0v0v0v0v0v0v0v0v0v0v0v0v0v0v0v0v0v0v0v0v0v0v0v0v0v0v0z" />
<glyph unicode="o" horiz-adv-x="1168" d="M0 0v0v0v0v0v0v0v0v0v0v0zM0 0v0v0v0v0v0v0v0v0v0v0v0v0v0v0z" />
<glyph unicode="p" horiz-adv-x="1244" d="M0 0v0v0v0v0v0v0v0v0v0v0v0v0zM0 0v0v0v0v0v0v0v0v0v0v0v0v0v0v0v0v0v0v0v0v0z" />
<glyph unicode="q" horiz-adv-x="1167" d="M0 0v0v0v0v0v0v0v0v0v0v0v0v0v0v0v0zM0 0v0v0v0v0v0v0v0v0v0v0v0v0z" />
<glyph unicode="r" horiz-adv-x="919" d="M0 0v0v0v0v0v0v0v0v0v0v0v0v0v0v0v0v0v0v0v0v0v0v0z" />
<glyph unicode="s" horiz-adv-x="962" d="M0 0v0v0v0v0v0v0v0v0v0v0v0v0v0v0v0v0v0v0v0v0v0v0v0v0v0v0v0v0v0v0v0v0v0v0z" />
<glyph unicode="t" horiz-adv-x="772" d="M0 0v0v0v0v0v0v0v0v0v0v0v0v0v0v0v0v0v0v0v0v0z" />
<glyph unicode="u" horiz-adv-x="1316" d="M0 0v0v0v0v0v0v0v0v0v0v0v0v0v0v0v0v0v0v0v0v0v0v0z" />
<glyph unicode="v" horiz-adv-x="1100" d="M0 0v0v0v0v0v0v0v0v0v0v0v0v0v0v0v0v0z" />
<glyph unicode="w" horiz-adv-x="1769" d="M0 0v0v0v0v0v0v0v0v0v0v0v0v0v0v0v0v0v0v0v0v0v0v0v0v0z" />
<glyph unicode="x" horiz-adv-x="1168" d="M0 0v0v0v0v0v0v0v0v0v0v0v0v0v0v0v0v0v0v0v0v0v0v0v0v0v0v0v0v0z" />
<glyph unicode="y" horiz-adv-x="1104" d="M0 0v0v0v0v0v0v0v0v0v0v0v0v0v0v0v0v0v0v0v0v0v0v0v0v0z" />
<glyph unicode="z" horiz-adv-x="1039" d="M0 0v0v0v0v0v0v0v0v0v0v0v0v0v0v0v0v0z" />
<glyph unicode="{" horiz-adv-x="864" d="M0 0v0v0v0v0v0v0v0v0v0v0v0v0v0v0v0v0v0v0v0v0v0v0v0v0v0v0v0v0v0v0v0v0v0v0v0v0v0v0z" />
<glyph unicode="|" horiz-adv-x="658" d="M0 0v0v0v0v0z" />
<glyph unicode="}" horiz-adv-x="864" d="M0 0v0v0v0v0v0v0v0v0v0v0v0v0v0v0v0v0v0v0v0v0v0v0v0v0v0v0v0v0v0v0v0v0v0v0v0v0v0v0z" />
<glyph unicode="~" horiz-adv-x="1281" d="M0 0v0v0v0v0v0v0v0v0v0v0v0v0v0v0v0v0v0v0v0v0v0v0v0v0v0v0v0v0v0v0v0v0z" />
<glyph unicode="&#xa1;" horiz-adv-x="647" d="M0 0v0v0v0v0v0v0v0v0v0v0v0v0v0v0v0v0zM0 0v0v0v0v0v0z" />
<glyph unicode="&#xa2;" horiz-adv-x="1080" d="M0 0v0v0v0v0v0v0v0v0v0v0v0v0v0v0v0v0v0v0v0v0v0v0v0zM0 0v0v0v0v0v0v0v0v0z" />
<glyph unicode="&#xa3;" horiz-adv-x="1135" d="M0 0v0v0v0v0v0v0v0v0v0v0v0v0v0v0v0v0v0v0v0v0v0v0v0v0v0v0v0v0v0v0v0v0v0v0v0v0v0v0v0v0v0v0v0v0v0v0v0v0v0v0v0z" />
<glyph unicode="&#xa4;" horiz-adv-x="1248" d="M0 0v0v0v0v0v0v0v0v0v0v0v0v0v0v0v0v0v0v0v0v0v0v0v0v0v0v0v0zM0 0v0v0v0v0v0v0v0v0v0v0v0v0v0v0v0v0z" />
<glyph unicode="&#xa5;" horiz-adv-x="1216" d="M0 0v0v0v0v0v0v0v0v0v0v0v0v0v0v0v0v0v0v0v0v0v0v0v0v0v0v0v0v0v0v0v0v0v0v0v0z" />
<glyph unicode="&#xa6;" horiz-adv-x="658" d="M0 0v0v0v0v0zM0 0v0v0v0v0z" />
<glyph unicode="&#xa7;" horiz-adv-x="1209" d="M0 0v0v0v0v0v0v0v0v0v0v0v0v0v0v0v0v0v0v0v0v0v0v0v0v0v0v0v0v0v0v0v0v0v0v0v0v0v0v0v0v0v0v0v0v0v0v0v0v0v0v0v0v0v0v0v0v0v0v0v0v0v0v0v0v0v0v0zM0 0v0v0v0v0v0v0v0v0v0v0v0v0v0v0v0v0z" />
<glyph unicode="&#xa8;" horiz-adv-x="1035" d="M0 0v0v0v0v0v0v0v0v0v0v0v0v0v0v0v0v0zM0 0v0v0v0v0v0v0v0v0v0v0v0v0v0v0v0v0z" />
<glyph unicode="&#xa9;" horiz-adv-x="1347" d="M0 0v0v0v0v0v0v0v0v0v0v0v0v0v0v0v0v0v0v0v0v0v0v0v0v0v0v0v0v0v0v0v0v0v0v0zM0 0v0v0v0v0v0v0v0v0v0v0v0v0v0v0v0v0zM0 0v0v0v0v0v0v0v0v0v0v0v0v0v0v0v0v0v0v0z" />
<glyph unicode="&#xaa;" horiz-adv-x="633" d="M0 0v0v0v0v0v0v0v0v0v0v0v0v0v0v0v0v0v0v0v0v0v0v0v0v0v0v0v0v0v0v0v0zM0 0v0v0v0v0v0v0v0v0v0v0v0z" />
<glyph unicode="&#xab;" horiz-adv-x="1103" d="M0 0v0v0v0v0v0v0v0v0v0v0zM0 0v0v0v0v0v0v0v0v0v0z" />
<glyph unicode="&#xac;" horiz-adv-x="1243" d="M0 0v0v0v0v0v0v0z" />
<glyph unicode="&#xad;" horiz-adv-x="959" d="M0 0v0v0v0v0z" />
<glyph unicode="&#xae;" horiz-adv-x="1347" d="M0 0v0v0v0v0v0v0v0v0v0v0v0v0v0v0v0v0v0v0zM0 0v0v0v0v0v0v0v0v0v0v0v0v0v0v0v0v0zM0 0v0v0v0v0v0v0v0v0v0v0v0v0v0v0v0v0v0v0v0v0v0zM0 0v0v0v0v0v0v0v0v0v0v0z" />
<glyph unicode="&#xaf;" horiz-adv-x="1050" d="M0 0v0v0v0v0z" />
<glyph unicode="&#xb0;" horiz-adv-x="654" d="M0 0v0v0v0v0v0v0v0v0v0v0v0v0v0v0v0v0zM0 0v0v0v0v0v0v0v0v0z" />
<glyph unicode="&#xb1;" horiz-adv-x="1103" d="M0 0v0v0v0v0v0v0v0v0v0v0v0v0zM0 0v0v0v0v0z" />
<glyph unicode="&#xb2;" horiz-adv-x="581" d="M0 0v0v0v0v0v0v0v0v0v0v0v0v0v0v0v0v0v0v0v0v0v0v0v0v0v0v0v0v0v0v0z" />
<glyph unicode="&#xb3;" horiz-adv-x="548" d="M0 0v0v0v0v0v0v0v0v0v0v0v0v0v0v0v0v0v0v0v0v0v0v0v0v0v0v0v0v0v0v0v0v0v0v0v0v0v0v0v0v0v0v0v0v0v0z" />
<glyph unicode="&#xb4;" horiz-adv-x="855" d="M0 0v0v0v0v0v0v0z" />
<glyph unicode="&#xb5;" horiz-adv-x="1368" d="M0 0v0v0v0v0v0v0v0v0v0v0v0v0v0v0v0v0v0v0v0v0v0v0v0v0v0v0v0v0v0v0v0v0v0v0v0v0v0z" />
<glyph unicode="&#xb6;" horiz-adv-x="1262" d="M0 0v0v0v0v0v0v0v0v0v0v0v0v0v0v0v0v0v0v0v0v0v0v0v0v0v0v0v0v0v0v0v0z" />
<glyph unicode="&#xb7;" horiz-adv-x="572" d="M0 0v0v0v0v0v0v0v0v0v0v0v0v0v0v0v0v0z" />
<glyph unicode="&#xb8;" horiz-adv-x="858" d="M0 0v0v0v0v0v0v0v0v0v0v0v0v0v0v0v0v0v0v0v0v0v0v0v0v0v0v0v0v0z" />
<glyph unicode="&#xb9;" horiz-adv-x="446" d="M0 0v0v0v0v0v0v0v0v0v0v0v0z" />
<glyph unicode="&#xba;" horiz-adv-x="587" d="M0 0v0v0v0v0v0v0v0v0v0v0v0v0v0v0v0v0v0v0zM0 0v0v0v0v0v0v0v0v0v0v0v0v0v0v0v0v0v0v0v0v0v0v0z" />
<glyph unicode="&#xbb;" horiz-adv-x="1103" d="M0 0v0v0v0v0v0v0v0v0v0v0zM0 0v0v0v0v0v0v0v0v0v0z" />
<glyph unicode="&#xbc;" horiz-adv-x="1339" d="M0 0v0v0v0v0v0v0v0v0v0v0v0zM0 0v0v0v0v0v0v0zM0 0v0v0v0v0v0v0v0v0v0v0v0v0v0v0v0v0v0v0v0z" />
<glyph unicode="&#xbd;" horiz-adv-x="1339" d="M0 0v0v0v0v0v0v0v0v0v0v0v0zM0 0v0v0v0v0v0v0zM0 0v0v0v0v0v0v0v0v0v0v0v0v0v0v0v0v0v0v0v0v0v0v0v0v0v0v0v0v0v0v0z" />
<glyph unicode="&#xbe;" horiz-adv-x="1339" d="M0 0v0v0v0v0v0v0v0v0v0v0v0v0v0v0v0v0v0v0v0v0v0v0v0v0v0v0v0v0v0v0v0v0v0v0v0v0v0v0v0v0v0v0v0v0v0zM0 0v0v0v0v0v0v0zM0 0v0v0v0v0v0v0v0v0v0v0v0v0v0v0v0v0v0v0v0z" />
<glyph unicode="&#xbf;" horiz-adv-x="1029" d="M0 0v0v0v0v0v0v0v0v0v0v0v0v0v0v0v0v0v0v0v0v0v0v0v0v0v0v0v0v0v0v0v0v0v0v0v0v0v0v0v0v0v0v0v0v0v0v0zM0 0v0v0v0v0v0v0v0v0v0v0v0v0v0v0v0v0z" />
<glyph unicode="&#xc0;" d="M0 0v0v0v0v0v0v0v0v0v0v0v0v0v0v0v0v0zM0 0v0v0v0v0zM0 0v0v0v0v0v0v0z" />
<glyph unicode="&#xc1;" d="M0 0v0v0v0v0v0v0v0v0v0v0v0v0v0v0v0v0zM0 0v0v0v0v0zM0 0v0v0v0v0v0v0z" />
<glyph unicode="&#xc2;" d="M0 0v0v0v0v0v0v0v0v0v0v0v0v0v0v0v0v0zM0 0v0v0v0v0zM0 0v0v0v0v0v0v0v0v0v0z" />
<glyph unicode="&#xc3;" d="M0 0v0v0v0v0v0v0v0v0v0v0v0v0v0v0v0v0zM0 0v0v0v0v0zM0 0v0v0v0v0v0v0v0v0v0v0v0v0v0v0v0v0v0v0v0v0v0v0z" />
<glyph unicode="&#xc4;" d="M0 0v0v0v0v0v0v0v0v0v0v0v0v0v0v0v0v0zM0 0v0v0v0v0zM0 0v0v0v0v0v0v0v0v0v0v0v0v0v0v0v0v0zM0 0v0v0v0v0v0v0v0v0v0v0v0v0v0v0v0v0z" />
<glyph unicode="&#xc5;" d="M0 0v0v0v0v0v0v0v0v0v0v0v0v0v0v0v0v0zM0 0v0v0v0v0zM0 0v0v0v0v0v0v0v0v0v0v0v0v0v0v0v0v0zM0 0v0v0v0v0v0v0v0v0v0v0v0v0v0v0v0v0z" />
<glyph unicode="&#xc6;" horiz-adv-x="1784" d="M0 0v0v0v0v0v0v0v0v0v0v0v0v0v0v0v0v0v0v0v0v0v0v0v0v0v0v0v0v0v0v0zM0 0v0v0v0z" />
<glyph unicode="&#xc7;" horiz-adv-x="1186" d="M0 0v0v0v0v0v0v0v0v0v0v0v0v0v0v0v0v0v0v0v0v0v0v0v0v0v0v0v0v0v0v0v0v0v0v0v0v0v0v0v0v0v0v0v0v0v0v0v0v0v0v0v0z" />
<glyph unicode="&#xc8;" horiz-adv-x="1203" d="M0 0v0v0v0v0v0v0v0v0v0v0v0v0v0v0v0v0v0v0v0v0v0v0v0v0zM0 0v0v0v0v0v0v0z" />
<glyph unicode="&#xc9;" horiz-adv-x="1203" d="M0 0v0v0v0v0v0v0v0v0v0v0v0v0v0v0v0v0v0v0v0v0v0v0v0v0zM0 0v0v0v0v0v0v0z" />
<glyph unicode="&#xca;" horiz-adv-x="1203" d="M0 0v0v0v0v0v0v0v0v0v0v0v0v0v0v0v0v0v0v0v0v0v0v0v0v0zM0 0v0v0v0v0v0v0v0v0v0z" />
<glyph unicode="&#xcb;" horiz-adv-x="1203" d="M0 0v0v0v0v0v0v0v0v0v0v0v0v0v0v0v0v0v0v0v0v0v0v0v0v0zM0 0v0v0v0v0v0v0v0v0v0v0v0v0v0v0v0v0zM0 0v0v0v0v0v0v0v0v0v0v0v0v0v0v0v0v0z" />
<glyph unicode="&#xcc;" horiz-adv-x="717" d="M0 0v0v0v0v0v0v0v0v0v0v0v0v0zM0 0v0v0v0v0v0v0z" />
<glyph unicode="&#xcd;" horiz-adv-x="717" d="M0 0v0v0v0v0v0v0v0v0v0v0v0v0zM0 0v0v0v0v0v0v0z" />
<glyph unicode="&#xce;" horiz-adv-x="717" d="M0 0v0v0v0v0v0v0v0v0v0v0v0v0zM0 0v0v0v0v0v0v0v0v0v0z" />
<glyph unicode="&#xcf;" horiz-adv-x="717" d="M0 0v0v0v0v0v0v0v0v0v0v0v0v0zM0 0v0v0v0v0v0v0v0v0v0v0v0v0v0v0v0v0zM0 0v0v0v0v0v0v0v0v0v0v0v0v0v0v0v0v0z" />
<glyph unicode="&#xd0;" horiz-adv-x="1428" d="M0 0v0v0v0v0v0v0v0v0v0v0v0v0v0v0v0v0zM0 0v0v0v0v0v0v0v0v0v0v0v0v0v0v0z" />
<glyph unicode="&#xd1;" horiz-adv-x="1579" d="M0 0v0v0v0v0v0v0v0v0v0v0v0v0v0v0v0v0v0v0v0v0v0v0zM0 0v0v0v0v0v0v0v0v0v0v0v0v0v0v0v0v0v0v0v0v0v0v0z" />
<glyph unicode="&#xd2;" horiz-adv-x="1407" d="M0 0v0v0v0v0v0v0v0v0v0v0zM0 0v0v0v0v0v0v0v0v0v0v0v0v0v0v0zM0 0v0v0v0v0v0v0z" />
<glyph unicode="&#xd3;" horiz-adv-x="1407" d="M0 0v0v0v0v0v0v0v0v0v0v0zM0 0v0v0v0v0v0v0v0v0v0v0v0v0v0v0zM0 0v0v0v0v0v0v0z" />
<glyph unicode="&#xd4;" horiz-adv-x="1407" d="M0 0v0v0v0v0v0v0v0v0v0v0zM0 0v0v0v0v0v0v0v0v0v0v0v0v0v0v0zM0 0v0v0v0v0v0v0v0v0v0z" />
<glyph unicode="&#xd5;" horiz-adv-x="1407" d="M0 0v0v0v0v0v0v0v0v0v0v0zM0 0v0v0v0v0v0v0v0v0v0v0v0v0v0v0zM0 0v0v0v0v0v0v0v0v0v0v0v0v0v0v0v0v0v0v0v0v0v0v0z" />
<glyph unicode="&#xd6;" horiz-adv-x="1407" d="M0 0v0v0v0v0v0v0v0v0v0v0zM0 0v0v0v0v0v0v0v0v0v0v0v0v0v0v0zM0 0v0v0v0v0v0v0v0v0v0v0v0v0v0v0v0v0zM0 0v0v0v0v0v0v0v0v0v0v0v0v0v0v0v0v0z" />
<glyph unicode="&#xd7;" horiz-adv-x="1109" d="M0 0v0v0v0v0v0v0v0v0v0v0v0v0z" />
<glyph unicode="&#xd8;" horiz-adv-x="1407" d="M0 0v0v0v0v0v0v0v0v0v0v0v0v0v0v0v0v0v0v0v0v0v0v0v0v0v0zM0 0v0v0v0v0v0v0v0v0v0v0v0v0zM0 0v0v0v0v0v0v0v0v0v0v0v0z" />
<glyph unicode="&#xd9;" horiz-adv-x="1400" d="M0 0v0v0v0v0v0v0v0v0v0v0v0v0v0v0v0v0v0v0v0v0v0v0v0v0zM0 0v0v0v0v0v0v0z" />
<glyph unicode="&#xda;" horiz-adv-x="1400" d="M0 0v0v0v0v0v0v0v0v0v0v0v0v0v0v0v0v0v0v0v0v0v0v0v0v0zM0 0v0v0v0v0v0v0z" />
<glyph unicode="&#xdb;" horiz-adv-x="1400" d="M0 0v0v0v0v0v0v0v0v0v0v0v0v0v0v0v0v0v0v0v0v0v0v0v0v0zM0 0v0v0v0v0v0v0v0v0v0z" />
<glyph unicode="&#xdc;" horiz-adv-x="1400" d="M0 0v0v0v0v0v0v0v0v0v0v0v0v0v0v0v0v0v0v0v0v0v0v0v0v0zM0 0v0v0v0v0v0v0v0v0v0v0v0v0v0v0v0v0zM0 0v0v0v0v0v0v0v0v0v0v0v0v0v0v0v0v0z" />
<glyph unicode="&#xdd;" horiz-adv-x="1172" d="M0 0v0v0v0v0v0v0v0v0v0v0v0v0v0v0v0v0v0v0v0v0v0zM0 0v0v0v0v0v0v0z" />
<glyph unicode="&#xde;" horiz-adv-x="1098" d="M0 0v0v0v0v0v0v0v0v0v0v0v0v0v0v0v0v0v0v0v0v0v0v0v0zM0 0v0v0v0v0v0v0v0v0v0v0v0v0v0z" />
<glyph unicode="&#xdf;" horiz-adv-x="1289" d="M0 0v0v0v0v0v0v0v0v0v0v0v0v0v0v0v0v0v0v0v0v0v0v0v0v0v0v0v0v0v0v0v0v0v0v0v0v0v0v0v0v0v0v0v0v0v0v0v0v0v0v0v0v0v0v0v0v0v0v0v0v0v0v0v0v0v0v0v0z" />
<glyph unicode="&#xe0;" horiz-adv-x="1188" d="M0 0v0v0v0v0v0v0v0v0v0v0v0v0v0v0v0v0v0v0v0v0v0v0v0zM0 0v0v0v0v0v0v0v0v0v0zM0 0v0v0v0v0v0v0z" />
<glyph unicode="&#xe1;" horiz-adv-x="1188" d="M0 0v0v0v0v0v0v0v0v0v0v0v0v0v0v0v0v0v0v0v0v0v0v0v0zM0 0v0v0v0v0v0v0v0v0v0zM0 0v0v0v0v0v0v0z" />
<glyph unicode="&#xe2;" horiz-adv-x="1188" d="M0 0v0v0v0v0v0v0v0v0v0v0v0v0v0v0v0v0v0v0v0v0v0v0v0zM0 0v0v0v0v0v0v0v0v0v0zM0 0v0v0v0v0v0v0v0v0v0z" />
<glyph unicode="&#xe3;" horiz-adv-x="1188" d="M0 0v0v0v0v0v0v0v0v0v0v0v0v0v0v0v0v0v0v0v0v0v0v0v0zM0 0v0v0v0v0v0v0v0v0v0zM0 0v0v0v0v0v0v0v0v0v0v0v0v0v0v0v0v0v0v0v0v0z" />
<glyph unicode="&#xe4;" horiz-adv-x="1188" d="M0 0v0v0v0v0v0v0v0v0v0v0v0v0v0v0v0v0v0v0v0v0v0v0v0zM0 0v0v0v0v0v0v0v0v0v0zM0 0v0v0v0v0v0v0v0v0v0v0v0v0v0v0v0v0zM0 0v0v0v0v0v0v0v0v0v0v0v0v0v0v0v0v0z" />
<glyph unicode="&#xe5;" horiz-adv-x="1188" d="M0 0v0v0v0v0v0v0v0v0v0v0v0v0v0v0v0v0v0v0v0v0v0v0v0zM0 0v0v0v0v0v0v0v0v0v0zM0 0v0v0v0v0v0v0v0v0v0v0v0v0v0v0v0v0zM0 0v0v0v0v0v0v0v0v0v0v0v0v0v0v0v0v0z" />
<glyph unicode="&#xe6;" horiz-adv-x="1685" d="M0 0v0v0v0v0v0v0v0v0v0v0v0v0v0v0v0v0v0v0v0v0v0v0v0v0v0v0v0v0v0v0v0v0v0v0v0v0v0v0v0v0v0v0v0v0v0v0v0v0zM0 0v0v0v0v0v0v0v0v0v0v0v0v0v0v0v0v0zM0 0v0v0v0v0v0v0v0v0v0v0v0z" />
<glyph unicode="&#xe7;" horiz-adv-x="992" d="M0 0v0v0v0v0v0v0v0v0v0v0v0v0v0v0v0v0v0v0v0v0v0v0v0v0v0v0v0v0v0v0v0v0v0v0v0v0v0v0v0v0v0v0v0v0v0v0v0v0v0v0v0z" />
<glyph unicode="&#xe8;" horiz-adv-x="1078" d="M0 0v0v0v0v0v0v0v0v0v0v0v0v0v0v0v0v0v0zM0 0v0v0v0v0v0v0v0zM0 0v0v0v0v0v0v0z" />
<glyph unicode="&#xe9;" horiz-adv-x="1078" d="M0 0v0v0v0v0v0v0v0v0v0v0v0v0v0v0v0v0v0zM0 0v0v0v0v0v0v0v0zM0 0v0v0v0v0v0v0z" />
<glyph unicode="&#xea;" horiz-adv-x="1078" d="M0 0v0v0v0v0v0v0v0v0v0v0v0v0v0v0v0v0v0zM0 0v0v0v0v0v0v0v0zM0 0v0v0v0v0v0v0v0v0v0z" />
<glyph unicode="&#xeb;" horiz-adv-x="1078" d="M0 0v0v0v0v0v0v0v0v0v0v0v0v0v0v0v0v0v0zM0 0v0v0v0v0v0v0v0zM0 0v0v0v0v0v0v0v0v0v0v0v0v0v0v0v0v0zM0 0v0v0v0v0v0v0v0v0v0v0v0v0v0v0v0v0z" />
<glyph unicode="&#xec;" horiz-adv-x="696" d="M0 0v0v0v0v0v0v0v0v0v0v0zM0 0v0v0v0v0v0v0z" />
<glyph unicode="&#xed;" horiz-adv-x="696" d="M0 0v0v0v0v0v0v0v0v0v0v0zM0 0v0v0v0v0v0v0z" />
<glyph unicode="&#xee;" horiz-adv-x="696" d="M0 0v0v0v0v0v0v0v0v0v0v0zM0 0v0v0v0v0v0v0v0v0v0z" />
<glyph unicode="&#xef;" horiz-adv-x="696" d="M0 0v0v0v0v0v0v0v0v0v0v0zM0 0v0v0v0v0v0v0v0v0v0v0v0v0v0v0v0v0zM0 0v0v0v0v0v0v0v0v0v0v0v0v0v0v0v0v0z" />
<glyph unicode="&#xf0;" horiz-adv-x="1168" d="M0 0v0v0v0v0v0v0v0v0v0v0v0v0v0v0v0v0v0v0v0v0v0v0v0v0v0v0v0v0v0v0v0v0v0v0v0zM0 0v0v0v0v0v0v0v0v0v0v0v0v0v0v0v0v0v0v0v0v0v0v0z" />
<glyph unicode="&#xf1;" horiz-adv-x="1392" d="M0 0v0v0v0v0v0v0v0v0v0v0v0v0v0v0v0v0v0v0v0v0v0v0v0v0v0v0zM0 0v0v0v0v0v0v0v0v0v0v0v0v0v0v0v0v0v0v0v0v0z" />
<glyph unicode="&#xf2;" horiz-adv-x="1168" d="M0 0v0v0v0v0v0v0v0v0v0v0zM0 0v0v0v0v0v0v0v0v0v0v0v0v0v0v0zM0 0v0v0v0v0v0v0z" />
<glyph unicode="&#xf3;" horiz-adv-x="1168" d="M0 0v0v0v0v0v0v0v0v0v0v0zM0 0v0v0v0v0v0v0v0v0v0v0v0v0v0v0zM0 0v0v0v0v0v0v0z" />
<glyph unicode="&#xf4;" horiz-adv-x="1168" d="M0 0v0v0v0v0v0v0v0v0v0v0zM0 0v0v0v0v0v0v0v0v0v0v0v0v0v0v0zM0 0v0v0v0v0v0v0v0v0v0z" />
<glyph unicode="&#xf5;" horiz-adv-x="1168" d="M0 0v0v0v0v0v0v0v0v0v0v0zM0 0v0v0v0v0v0v0v0v0v0v0v0v0v0v0zM0 0v0v0v0v0v0v0v0v0v0v0v0v0v0v0v0v0v0v0v0v0z" />
<glyph unicode="&#xf6;" horiz-adv-x="1168" d="M0 0v0v0v0v0v0v0v0v0v0v0zM0 0v0v0v0v0v0v0v0v0v0v0v0v0v0v0zM0 0v0v0v0v0v0v0v0v0v0v0v0v0v0v0v0v0zM0 0v0v0v0v0v0v0v0v0v0v0v0v0v0v0v0v0z" />
<glyph unicode="&#xf7;" horiz-adv-x="1213" d="M0 0v0v0v0v0zM0 0v0v0v0v0v0v0v0v0v0v0v0v0v0v0v0v0zM0 0v0v0v0v0v0v0v0v0v0v0v0v0v0v0v0v0z" />
<glyph unicode="&#xf8;" horiz-adv-x="1168" d="M0 0v0v0v0v0v0v0v0v0v0v0v0v0v0v0v0v0v0v0v0v0v0v0v0v0v0v0v0zM0 0v0v0v0v0v0v0v0v0v0v0v0zM0 0v0v0v0v0v0v0v0v0v0v0v0z" />
<glyph unicode="&#xf9;" horiz-adv-x="1316" d="M0 0v0v0v0v0v0v0v0v0v0v0v0v0v0v0v0v0v0v0v0v0v0v0zM0 0v0v0v0v0v0v0z" />
<glyph unicode="&#xfa;" horiz-adv-x="1316" d="M0 0v0v0v0v0v0v0v0v0v0v0v0v0v0v0v0v0v0v0v0v0v0v0zM0 0v0v0v0v0v0v0z" />
<glyph unicode="&#xfb;" horiz-adv-x="1316" d="M0 0v0v0v0v0v0v0v0v0v0v0v0v0v0v0v0v0v0v0v0v0v0v0zM0 0v0v0v0v0v0v0v0v0v0z" />
<glyph unicode="&#xfc;" horiz-adv-x="1316" d="M0 0v0v0v0v0v0v0v0v0v0v0v0v0v0v0v0v0v0v0v0v0v0v0zM0 0v0v0v0v0v0v0v0v0v0v0v0v0v0v0v0v0zM0 0v0v0v0v0v0v0v0v0v0v0v0v0v0v0v0v0z" />
<glyph unicode="&#xfd;" horiz-adv-x="1104" d="M0 0v0v0v0v0v0v0v0v0v0v0v0v0v0v0v0v0v0v0v0v0v0v0v0v0zM0 0v0v0v0v0v0v0z" />
<glyph unicode="&#xfe;" horiz-adv-x="1206" d="M0 0v0v0v0v0v0v0v0v0v0v0v0v0v0v0v0v0v0v0v0v0v0v0v0v0v0v0v0zM0 0v0v0v0v0v0v0v0v0v0v0v0v0v0v0v0v0v0v0z" />
<glyph unicode="&#xff;" horiz-adv-x="1104" d="M0 0v0v0v0v0v0v0v0v0v0v0v0v0v0v0v0v0v0v0v0v0v0v0v0v0zM0 0v0v0v0v0v0v0v0v0v0v0v0v0v0v0v0v0zM0 0v0v0v0v0v0v0v0v0v0v0v0v0v0v0v0v0z" />
<glyph unicode="&#x100;" d="M0 0v0v0v0v0v0v0v0v0v0v0v0v0v0v0v0v0zM0 0v0v0v0v0zM0 0v0v0v0v0z" />
<glyph unicode="&#x101;" horiz-adv-x="1188" d="M0 0v0v0v0v0v0v0v0v0v0v0v0v0v0v0v0v0v0v0v0v0v0v0v0zM0 0v0v0v0v0v0v0v0v0v0zM0 0v0v0v0v0z" />
<glyph unicode="&#x102;" d="M0 0v0v0v0v0v0v0v0v0v0v0v0v0v0v0v0v0zM0 0v0v0v0v0zM0 0v0v0v0v0v0v0v0v0v0v0v0v0v0v0v0v0v0v0z" />
<glyph unicode="&#x103;" horiz-adv-x="1188" d="M0 0v0v0v0v0v0v0v0v0v0v0v0v0v0v0v0v0v0v0v0v0v0v0v0zM0 0v0v0v0v0v0v0v0v0v0zM0 0v0v0v0v0v0v0v0v0v0v0v0v0v0v0v0v0v0v0z" />
<glyph unicode="&#x104;" d="M0 0v0v0v0v0v0v0v0v0v0v0v0v0v0v0v0v0v0v0v0v0v0v0v0v0v0v0v0v0v0v0v0v0v0zM0 0v0v0v0v0z" />
<glyph unicode="&#x105;" horiz-adv-x="1188" d="M0 0v0v0v0v0v0v0v0v0v0v0v0v0v0v0v0v0v0v0v0v0v0v0v0v0v0v0v0v0v0v0v0v0v0v0v0v0v0v0v0v0v0v0zM0 0v0v0v0v0v0v0v0v0v0z" />
<glyph unicode="&#x106;" horiz-adv-x="1186" d="M0 0v0v0v0v0v0v0v0v0v0v0v0v0v0v0v0v0v0v0v0v0v0v0v0v0zM0 0v0v0v0v0v0v0z" />
<glyph unicode="&#x107;" horiz-adv-x="992" d="M0 0v0v0v0v0v0v0v0v0v0v0v0v0v0v0v0v0v0v0v0v0v0v0v0v0zM0 0v0v0v0v0v0v0z" />
<glyph unicode="&#x108;" horiz-adv-x="1186" d="M0 0v0v0v0v0v0v0v0v0v0v0v0v0v0v0v0v0v0v0v0v0v0v0v0v0zM0 0v0v0v0v0v0v0v0v0v0z" />
<glyph unicode="&#x109;" horiz-adv-x="992" d="M0 0v0v0v0v0v0v0v0v0v0v0v0v0v0v0v0v0v0v0v0v0v0v0v0v0zM0 0v0v0v0v0v0v0v0v0v0z" />
<glyph unicode="&#x10a;" horiz-adv-x="1186" d="M0 0v0v0v0v0v0v0v0v0v0v0v0v0v0v0v0v0v0v0v0v0v0v0v0v0zM0 0v0v0v0v0v0v0v0v0v0v0v0v0v0v0v0v0z" />
<glyph unicode="&#x10b;" horiz-adv-x="992" d="M0 0v0v0v0v0v0v0v0v0v0v0v0v0v0v0v0v0v0v0v0v0v0v0v0v0zM0 0v0v0v0v0v0v0v0v0v0v0v0v0v0v0v0v0z" />
<glyph unicode="&#x10c;" horiz-adv-x="1186" d="M0 0v0v0v0v0v0v0v0v0v0v0v0v0v0v0v0v0v0v0v0v0v0v0v0v0zM0 0v0v0v0v0v0v0v0v0v0z" />
<glyph unicode="&#x10d;" horiz-adv-x="992" d="M0 0v0v0v0v0v0v0v0v0v0v0v0v0v0v0v0v0v0v0v0v0v0v0v0v0zM0 0v0v0v0v0v0v0v0v0v0z" />
<glyph unicode="&#x10e;" horiz-adv-x="1428" d="M0 0v0v0v0v0v0v0v0v0v0v0v0v0zM0 0v0v0v0v0v0v0v0v0v0v0zM0 0v0v0v0v0v0v0v0v0v0z" />
<glyph unicode="&#x10f;" horiz-adv-x="1242" d="M0 0v0v0v0v0v0v0v0v0v0v0v0v0v0v0v0v0v0v0zM0 0v0v0v0v0v0v0v0v0v0v0v0v0zM0 0v0v0v0v0v0z" />
<glyph unicode="&#x110;" horiz-adv-x="1428" d="M0 0v0v0v0v0v0v0v0v0v0v0v0v0v0v0v0v0zM0 0v0v0v0v0v0v0v0v0v0v0v0v0v0v0z" />
<glyph unicode="&#x111;" horiz-adv-x="1242" d="M0 0v0v0v0v0v0v0v0v0v0v0v0v0v0v0v0v0v0v0v0v0v0v0v0v0v0v0zM0 0v0v0v0v0v0v0v0v0v0v0v0v0z" />
<glyph unicode="&#x112;" horiz-adv-x="1203" d="M0 0v0v0v0v0v0v0v0v0v0v0v0v0v0v0v0v0v0v0v0v0v0v0v0v0zM0 0v0v0v0v0z" />
<glyph unicode="&#x113;" horiz-adv-x="1078" d="M0 0v0v0v0v0v0v0v0v0v0v0v0v0v0v0v0v0v0zM0 0v0v0v0v0v0v0v0zM0 0v0v0v0v0z" />
<glyph unicode="&#x114;" horiz-adv-x="1203" d="M0 0v0v0v0v0v0v0v0v0v0v0v0v0v0v0v0v0v0v0v0v0v0v0v0v0zM0 0v0v0v0v0v0v0v0v0v0v0v0v0v0v0v0v0v0v0z" />
<glyph unicode="&#x115;" horiz-adv-x="1078" d="M0 0v0v0v0v0v0v0v0v0v0v0v0v0v0v0v0v0v0zM0 0v0v0v0v0v0v0v0zM0 0v0v0v0v0v0v0v0v0v0v0v0v0v0v0v0v0v0v0z" />
<glyph unicode="&#x116;" horiz-adv-x="1203" d="M0 0v0v0v0v0v0v0v0v0v0v0v0v0v0v0v0v0v0v0v0v0v0v0v0v0zM0 0v0v0v0v0v0v0v0v0v0v0v0v0v0v0v0v0z" />
<glyph unicode="&#x117;" horiz-adv-x="1078" d="M0 0v0v0v0v0v0v0v0v0v0v0v0v0v0v0v0v0v0zM0 0v0v0v0v0v0v0v0zM0 0v0v0v0v0v0v0v0v0v0v0v0v0v0v0v0v0z" />
<glyph unicode="&#x118;" horiz-adv-x="1203" d="M0 0v0v0v0v0v0v0v0v0v0v0v0v0v0v0v0v0v0v0v0v0v0v0v0v0v0v0v0v0v0v0v0v0v0v0v0v0v0v0v0v0v0v0z" />
<glyph unicode="&#x119;" horiz-adv-x="1078" d="M0 0v0v0v0v0v0v0v0v0v0v0v0v0v0v0v0v0v0v0v0v0v0v0v0v0v0v0v0v0v0v0v0v0v0v0v0v0zM0 0v0v0v0v0v0v0v0z" />
<glyph unicode="&#x11a;" horiz-adv-x="1203" d="M0 0v0v0v0v0v0v0v0v0v0v0v0v0v0v0v0v0v0v0v0v0v0v0v0v0zM0 0v0v0v0v0v0v0v0v0v0z" />
<glyph unicode="&#x11b;" horiz-adv-x="1078" d="M0 0v0v0v0v0v0v0v0v0v0v0v0v0v0v0v0v0v0zM0 0v0v0v0v0v0v0v0zM0 0v0v0v0v0v0v0v0v0v0z" />
<glyph unicode="&#x11c;" horiz-adv-x="1330" d="M0 0v0v0v0v0v0v0v0v0v0v0v0v0v0v0v0v0v0v0v0v0v0v0v0v0v0v0v0v0v0v0zM0 0v0v0v0v0v0v0v0v0v0z" />
<glyph unicode="&#x11d;" horiz-adv-x="1083" d="M0 0v0v0v0v0v0v0v0v0v0v0v0v0v0v0v0v0v0v0v0v0v0v0v0v0v0v0v0v0v0v0v0v0v0v0v0zM0 0v0v0v0v0v0v0v0v0v0v0v0v0zM0 0v0v0v0v0v0v0v0v0v0v0v0v0v0v0zM0 0v0v0v0v0v0v0v0v0v0z" />
<glyph unicode="&#x11e;" horiz-adv-x="1330" d="M0 0v0v0v0v0v0v0v0v0v0v0v0v0v0v0v0v0v0v0v0v0v0v0v0v0v0v0v0v0v0v0zM0 0v0v0v0v0v0v0v0v0v0v0v0v0v0v0v0v0v0v0z" />
<glyph unicode="&#x11f;" horiz-adv-x="1083" d="M0 0v0v0v0v0v0v0v0v0v0v0v0v0v0v0v0v0v0v0v0v0v0v0v0v0v0v0v0v0v0v0v0v0v0v0v0zM0 0v0v0v0v0v0v0v0v0v0v0v0v0zM0 0v0v0v0v0v0v0v0v0v0v0v0v0v0v0zM0 0v0v0v0v0v0v0v0v0v0v0v0v0v0v0v0v0v0v0z" />
<glyph unicode="&#x120;" horiz-adv-x="1330" d="M0 0v0v0v0v0v0v0v0v0v0v0v0v0v0v0v0v0v0v0v0v0v0v0v0v0v0v0v0v0v0v0zM0 0v0v0v0v0v0v0v0v0v0v0v0v0v0v0v0v0z" />
<glyph unicode="&#x121;" horiz-adv-x="1083" d="M0 0v0v0v0v0v0v0v0v0v0v0v0v0v0v0v0v0v0v0v0v0v0v0v0v0v0v0v0v0v0v0v0v0v0v0v0zM0 0v0v0v0v0v0v0v0v0v0v0v0v0zM0 0v0v0v0v0v0v0v0v0v0v0v0v0v0v0zM0 0v0v0v0v0v0v0v0v0v0v0v0v0v0v0v0v0z" />
<glyph unicode="&#x122;" horiz-adv-x="1330" d="M0 0v0v0v0v0v0v0v0v0v0v0v0v0v0v0v0v0v0v0v0v0v0v0v0v0v0v0v0v0v0v0zM0 0v0v0v0v0v0z" />
<glyph unicode="&#x123;" horiz-adv-x="1083" d="M0 0v0v0v0v0v0v0v0v0v0v0v0v0v0v0v0v0v0v0v0v0v0v0v0v0v0v0v0v0v0v0v0v0v0v0v0zM0 0v0v0v0v0v0v0v0v0v0v0v0v0zM0 0v0v0v0v0v0v0v0v0v0v0v0v0v0v0zM0 0v0v0v0v0v0z" />
<glyph unicode="&#x124;" horiz-adv-x="1541" d="M0 0v0v0v0v0v0v0v0v0v0v0v0v0v0v0v0v0v0v0v0v0v0v0v0v0v0v0v0v0zM0 0v0v0v0v0v0v0v0v0v0z" />
<glyph unicode="&#x125;" horiz-adv-x="1378" d="M0 0v0v0v0v0v0v0v0v0v0v0v0v0v0v0v0v0v0v0v0v0v0v0v0v0v0v0v0zM0 0v0v0v0v0v0v0v0v0v0z" />
<glyph unicode="&#x126;" horiz-adv-x="1541" d="M0 0v0v0v0v0v0v0v0v0v0v0v0v0v0v0v0v0v0v0v0v0v0v0v0v0v0v0v0v0v0v0v0v0v0v0v0v0zM0 0v0v0v0v0z" />
<glyph unicode="&#x127;" horiz-adv-x="1378" d="M0 0v0v0v0v0v0v0v0v0v0v0v0v0v0v0v0v0v0v0v0v0v0v0v0v0v0v0v0v0v0v0v0v0v0v0v0z" />
<glyph unicode="&#x128;" horiz-adv-x="717" d="M0 0v0v0v0v0v0v0v0v0v0v0v0v0zM0 0v0v0v0v0v0v0v0v0v0v0v0v0v0v0v0v0v0v0v0v0v0v0z" />
<glyph unicode="&#x129;" horiz-adv-x="696" d="M0 0v0v0v0v0v0v0v0v0v0v0zM0 0v0v0v0v0v0v0v0v0v0v0v0v0v0v0v0v0v0v0v0v0z" />
<glyph unicode="&#x12a;" horiz-adv-x="717" d="M0 0v0v0v0v0v0v0v0v0v0v0v0v0zM0 0v0v0v0v0z" />
<glyph unicode="&#x12b;" horiz-adv-x="696" d="M0 0v0v0v0v0v0v0v0v0v0v0zM0 0v0v0v0v0z" />
<glyph unicode="&#x12c;" horiz-adv-x="717" d="M0 0v0v0v0v0v0v0v0v0v0v0v0v0zM0 0v0v0v0v0v0v0v0v0v0v0v0v0v0v0v0v0v0v0z" />
<glyph unicode="&#x12d;" horiz-adv-x="696" d="M0 0v0v0v0v0v0v0v0v0v0v0zM0 0v0v0v0v0v0v0v0v0v0v0v0v0v0v0v0v0v0v0z" />
<glyph unicode="&#x12e;" horiz-adv-x="717" d="M0 0v0v0v0v0v0v0v0v0v0v0v0v0v0v0v0v0v0v0v0v0v0v0v0v0v0v0v0v0v0v0v0z" />
<glyph unicode="&#x12f;" horiz-adv-x="696" d="M0 0v0v0v0v0v0v0v0v0v0v0v0v0v0v0v0v0v0v0v0v0v0v0v0v0v0v0v0v0v0zM0 0v0v0v0v0v0v0v0v0z" />
<glyph unicode="&#x130;" horiz-adv-x="717" d="M0 0v0v0v0v0v0v0v0v0v0v0v0v0zM0 0v0v0v0v0v0v0v0v0v0v0v0v0v0v0v0v0z" />
<glyph unicode="&#x131;" horiz-adv-x="696" d="M0 0v0v0v0v0v0v0v0v0v0v0z" />
<glyph unicode="&#x132;" horiz-adv-x="1614" d="M0 0v0v0v0v0v0v0v0v0v0v0v0v0zM0 0v0v0v0v0v0v0v0v0v0v0v0v0v0v0v0v0v0v0v0z" />
<glyph unicode="&#x133;" horiz-adv-x="1352" d="M0 0v0v0v0v0v0v0v0v0v0v0zM0 0v0v0v0v0v0v0v0v0zM0 0v0v0v0v0v0v0v0v0v0v0v0v0v0v0zM0 0v0v0v0v0v0v0v0v0z" />
<glyph unicode="&#x134;" horiz-adv-x="897" d="M0 0v0v0v0v0v0v0v0v0v0v0v0v0v0v0v0v0v0v0v0zM0 0v0v0v0v0v0v0v0v0v0z" />
<glyph unicode="&#x135;" horiz-adv-x="656" d="M0 0v0v0v0v0v0v0v0v0v0v0v0v0v0v0v0v0v0v0v0zM0 0v0v0v0v0v0v0v0v0v0z" />
<glyph unicode="&#x136;" horiz-adv-x="1394" d="M0 0v0v0v0v0v0v0v0v0v0v0v0v0v0v0v0v0v0v0v0v0v0v0v0v0v0v0v0zM0 0v0v0v0v0v0z" />
<glyph unicode="&#x137;" horiz-adv-x="1274" d="M0 0v0v0v0v0v0v0v0v0v0v0v0v0v0v0v0v0v0v0v0v0v0v0v0v0v0zM0 0v0v0v0v0v0z" />
<glyph unicode="&#x138;" horiz-adv-x="1206" d="M0 0v0v0v0v0v0v0v0v0v0v0v0v0v0v0v0v0v0v0v0v0v0v0v0v0v0v0v0v0v0v0v0v0v0v0v0v0v0v0v0v0v0z" />
<glyph unicode="&#x139;" horiz-adv-x="1066" d="M0 0v0v0v0v0v0v0v0v0v0v0v0v0v0v0zM0 0v0v0v0v0v0v0z" />
<glyph unicode="&#x13a;" horiz-adv-x="664" d="M0 0v0v0v0v0v0v0v0v0v0v0zM0 0v0v0v0v0v0v0z" />
<glyph unicode="&#x13b;" horiz-adv-x="1066" d="M0 0v0v0v0v0v0v0v0v0v0v0v0v0v0v0zM0 0v0v0v0v0v0z" />
<glyph unicode="&#x13c;" horiz-adv-x="664" d="M0 0v0v0v0v0v0v0v0v0v0v0zM0 0v0v0v0v0v0z" />
<glyph unicode="&#x13d;" horiz-adv-x="1066" d="M0 0v0v0v0v0v0v0v0v0v0v0v0v0v0v0zM0 0v0v0v0v0v0z" />
<glyph unicode="&#x13e;" horiz-adv-x="802" d="M0 0v0v0v0v0v0v0v0v0v0v0zM0 0v0v0v0v0v0z" />
<glyph unicode="&#x13f;" horiz-adv-x="1074" d="M0 0v0v0v0v0v0v0v0v0v0v0v0v0v0v0zM0 0v0v0v0v0v0v0v0v0v0v0v0v0v0v0v0v0z" />
<glyph unicode="&#x140;" horiz-adv-x="799" d="M0 0v0v0v0v0v0v0v0v0v0v0zM0 0v0v0v0v0v0v0v0v0v0v0v0v0v0v0v0v0z" />
<glyph unicode="&#x141;" horiz-adv-x="1066" d="M0 0v0v0v0v0v0v0v0v0v0v0v0v0v0v0v0v0v0v0v0v0v0v0z" />
<glyph unicode="&#x142;" horiz-adv-x="664" d="M0 0v0v0v0v0v0v0v0v0v0v0v0v0v0v0v0v0v0v0z" />
<glyph unicode="&#x143;" horiz-adv-x="1579" d="M0 0v0v0v0v0v0v0v0v0v0v0v0v0v0v0v0v0v0v0v0v0v0v0zM0 0v0v0v0v0v0v0z" />
<glyph unicode="&#x144;" horiz-adv-x="1392" d="M0 0v0v0v0v0v0v0v0v0v0v0v0v0v0v0v0v0v0v0v0v0v0v0v0v0v0v0zM0 0v0v0v0v0v0v0z" />
<glyph unicode="&#x145;" horiz-adv-x="1579" d="M0 0v0v0v0v0v0v0v0v0v0v0v0v0v0v0v0v0v0v0v0v0v0v0zM0 0v0v0v0v0v0z" />
<glyph unicode="&#x146;" horiz-adv-x="1392" d="M0 0v0v0v0v0v0v0v0v0v0v0v0v0v0v0v0v0v0v0v0v0v0v0v0v0v0v0zM0 0v0v0v0v0v0z" />
<glyph unicode="&#x147;" horiz-adv-x="1579" d="M0 0v0v0v0v0v0v0v0v0v0v0v0v0v0v0v0v0v0v0v0v0v0v0zM0 0v0v0v0v0v0v0v0v0v0z" />
<glyph unicode="&#x148;" horiz-adv-x="1392" d="M0 0v0v0v0v0v0v0v0v0v0v0v0v0v0v0v0v0v0v0v0v0v0v0v0v0v0v0zM0 0v0v0v0v0v0v0v0v0v0z" />
<glyph unicode="&#x149;" horiz-adv-x="1497" d="M0 0v0v0v0v0v0v0v0v0v0v0v0v0v0v0v0v0v0v0v0v0v0v0v0v0v0v0zM0 0v0v0v0v0v0v0v0v0v0v0v0v0v0v0v0v0v0v0v0v0v0v0v0v0v0z" />
<glyph unicode="&#x14a;" horiz-adv-x="1579" d="M0 0v0v0v0v0v0v0v0v0v0v0v0v0v0v0v0v0v0v0v0v0v0v0v0v0v0v0v0v0v0v0v0v0v0v0v0v0v0z" />
<glyph unicode="&#x14b;" horiz-adv-x="1307" d="M0 0v0v0v0v0v0v0v0v0v0v0v0v0v0v0v0v0v0v0v0v0v0v0v0v0v0v0v0v0v0v0v0v0v0v0v0v0v0v0v0v0v0v0z" />
<glyph unicode="&#x14c;" horiz-adv-x="1407" d="M0 0v0v0v0v0v0v0v0v0v0v0zM0 0v0v0v0v0v0v0v0v0v0v0v0v0v0v0zM0 0v0v0v0v0z" />
<glyph unicode="&#x14d;" horiz-adv-x="1168" d="M0 0v0v0v0v0v0v0v0v0v0v0zM0 0v0v0v0v0v0v0v0v0v0v0v0v0v0v0zM0 0v0v0v0v0z" />
<glyph unicode="&#x14e;" horiz-adv-x="1407" d="M0 0v0v0v0v0v0v0v0v0v0v0zM0 0v0v0v0v0v0v0v0v0v0v0v0v0v0v0zM0 0v0v0v0v0v0v0v0v0v0v0v0v0v0v0v0v0v0v0z" />
<glyph unicode="&#x14f;" horiz-adv-x="1168" d="M0 0v0v0v0v0v0v0v0v0v0v0zM0 0v0v0v0v0v0v0v0v0v0v0v0v0v0v0zM0 0v0v0v0v0v0v0v0v0v0v0v0v0v0v0v0v0v0v0z" />
<glyph unicode="&#x150;" horiz-adv-x="1407" d="M0 0v0v0v0v0v0v0v0v0v0v0zM0 0v0v0v0v0v0v0v0v0v0v0v0v0v0v0zM0 0v0v0v0v0v0v0zM0 0v0v0v0v0v0v0z" />
<glyph unicode="&#x151;" horiz-adv-x="1168" d="M0 0v0v0v0v0v0v0v0v0v0v0zM0 0v0v0v0v0v0v0v0v0v0v0v0v0v0v0zM0 0v0v0v0v0v0v0zM0 0v0v0v0v0v0v0z" />
<glyph unicode="&#x152;" horiz-adv-x="1913" d="M0 0v0v0v0v0v0v0v0v0v0v0v0v0v0v0v0v0v0v0v0v0v0v0v0v0v0v0v0v0v0zM0 0v0v0v0v0v0v0v0v0v0v0v0v0v0v0v0z" />
<glyph unicode="&#x153;" horiz-adv-x="1830" d="M0 0v0v0v0v0v0v0v0v0v0v0v0v0v0v0v0v0v0v0v0v0v0v0v0zM0 0v0v0v0v0v0v0v0v0v0v0v0v0v0v0v0zM0 0v0v0v0v0v0v0v0z" />
<glyph unicode="&#x154;" horiz-adv-x="1281" d="M0 0v0v0v0v0v0v0v0v0v0v0v0v0v0v0v0v0v0v0v0v0v0zM0 0v0v0v0v0v0v0v0v0v0zM0 0v0v0v0v0v0v0z" />
<glyph unicode="&#x155;" horiz-adv-x="919" d="M0 0v0v0v0v0v0v0v0v0v0v0v0v0v0v0v0v0v0v0v0v0v0v0zM0 0v0v0v0v0v0v0z" />
<glyph unicode="&#x156;" horiz-adv-x="1281" d="M0 0v0v0v0v0v0v0v0v0v0v0v0v0v0v0v0v0v0v0v0v0v0zM0 0v0v0v0v0v0v0v0v0v0zM0 0v0v0v0v0v0z" />
<glyph unicode="&#x157;" horiz-adv-x="919" d="M0 0v0v0v0v0v0v0v0v0v0v0v0v0v0v0v0v0v0v0v0v0v0v0zM0 0v0v0v0v0v0z" />
<glyph unicode="&#x158;" horiz-adv-x="1281" d="M0 0v0v0v0v0v0v0v0v0v0v0v0v0v0v0v0v0v0v0v0v0v0zM0 0v0v0v0v0v0v0v0v0v0zM0 0v0v0v0v0v0v0v0v0v0z" />
<glyph unicode="&#x159;" horiz-adv-x="919" d="M0 0v0v0v0v0v0v0v0v0v0v0v0v0v0v0v0v0v0v0v0v0v0v0zM0 0v0v0v0v0v0v0v0v0v0z" />
<glyph unicode="&#x15a;" horiz-adv-x="1130" d="M0 0v0v0v0v0v0v0v0v0v0v0v0v0v0v0v0v0v0v0v0v0v0v0v0v0v0v0v0v0v0v0v0v0v0v0zM0 0v0v0v0v0v0v0z" />
<glyph unicode="&#x15b;" horiz-adv-x="962" d="M0 0v0v0v0v0v0v0v0v0v0v0v0v0v0v0v0v0v0v0v0v0v0v0v0v0v0v0v0v0v0v0v0v0v0v0zM0 0v0v0v0v0v0v0z" />
<glyph unicode="&#x15c;" horiz-adv-x="1130" d="M0 0v0v0v0v0v0v0v0v0v0v0v0v0v0v0v0v0v0v0v0v0v0v0v0v0v0v0v0v0v0v0v0v0v0v0zM0 0v0v0v0v0v0v0v0v0v0z" />
<glyph unicode="&#x15d;" horiz-adv-x="962" d="M0 0v0v0v0v0v0v0v0v0v0v0v0v0v0v0v0v0v0v0v0v0v0v0v0v0v0v0v0v0v0v0v0v0v0v0zM0 0v0v0v0v0v0v0v0v0v0z" />
<glyph unicode="&#x15e;" horiz-adv-x="1130" d="M0 0v0v0v0v0v0v0v0v0v0v0v0v0v0v0v0v0v0v0v0v0v0v0v0v0v0v0v0v0v0v0v0v0v0v0v0v0v0v0v0v0v0v0v0v0v0v0v0v0v0v0v0v0v0v0v0v0v0v0v0v0v0z" />
<glyph unicode="&#x15f;" horiz-adv-x="962" d="M0 0v0v0v0v0v0v0v0v0v0v0v0v0v0v0v0v0v0v0v0v0v0v0v0v0v0v0v0v0v0v0v0v0v0v0v0v0v0v0v0v0v0v0v0v0v0v0v0v0v0v0v0v0v0v0v0v0v0v0v0v0v0z" />
<glyph unicode="&#x160;" horiz-adv-x="1130" d="M0 0v0v0v0v0v0v0v0v0v0v0v0v0v0v0v0v0v0v0v0v0v0v0v0v0v0v0v0v0v0v0v0v0v0v0zM0 0v0v0v0v0v0v0v0v0v0z" />
<glyph unicode="&#x161;" horiz-adv-x="962" d="M0 0v0v0v0v0v0v0v0v0v0v0v0v0v0v0v0v0v0v0v0v0v0v0v0v0v0v0v0v0v0v0v0v0v0v0zM0 0v0v0v0v0v0v0v0v0v0z" />
<glyph unicode="&#x162;" horiz-adv-x="1069" d="M0 0v0v0v0v0v0v0v0v0v0v0v0v0v0v0v0v0v0v0v0v0v0v0v0v0v0v0v0v0v0v0v0v0v0v0v0v0v0v0v0v0v0v0v0v0z" />
<glyph unicode="&#x163;" horiz-adv-x="772" d="M0 0v0v0v0v0v0v0v0v0v0v0v0v0v0v0v0v0v0v0v0v0v0v0v0v0v0v0v0v0v0v0v0v0v0v0v0v0v0v0v0v0v0v0v0v0v0v0v0z" />
<glyph unicode="&#x164;" horiz-adv-x="1207" d="M0 0v0v0v0v0v0v0v0v0v0v0v0v0v0v0v0v0zM0 0v0v0v0v0v0v0v0v0v0z" />
<glyph unicode="&#x165;" horiz-adv-x="772" d="M0 0v0v0v0v0v0v0v0v0v0v0v0v0v0v0v0v0v0v0v0v0zM0 0v0v0v0v0v0z" />
<glyph unicode="&#x166;" horiz-adv-x="1147" d="M0 0v0v0v0v0v0v0v0v0v0v0v0v0v0v0v0v0v0v0v0v0v0v0v0v0z" />
<glyph unicode="&#x167;" horiz-adv-x="772" d="M0 0v0v0v0v0v0v0v0v0v0v0v0v0v0v0v0v0v0v0v0v0v0v0v0v0v0v0v0v0z" />
<glyph unicode="&#x168;" horiz-adv-x="1400" d="M0 0v0v0v0v0v0v0v0v0v0v0v0v0v0v0v0v0v0v0v0v0v0v0v0v0zM0 0v0v0v0v0v0v0v0v0v0v0v0v0v0v0v0v0v0v0v0v0v0v0z" />
<glyph unicode="&#x169;" horiz-adv-x="1316" d="M0 0v0v0v0v0v0v0v0v0v0v0v0v0v0v0v0v0v0v0v0v0v0v0zM0 0v0v0v0v0v0v0v0v0v0v0v0v0v0v0v0v0v0v0v0v0z" />
<glyph unicode="&#x16a;" horiz-adv-x="1400" d="M0 0v0v0v0v0v0v0v0v0v0v0v0v0v0v0v0v0v0v0v0v0v0v0v0v0zM0 0v0v0v0v0z" />
<glyph unicode="&#x16b;" horiz-adv-x="1316" d="M0 0v0v0v0v0v0v0v0v0v0v0v0v0v0v0v0v0v0v0v0v0v0v0zM0 0v0v0v0v0z" />
<glyph unicode="&#x16c;" horiz-adv-x="1400" d="M0 0v0v0v0v0v0v0v0v0v0v0v0v0v0v0v0v0v0v0v0v0v0v0v0v0zM0 0v0v0v0v0v0v0v0v0v0v0v0v0v0v0v0v0v0v0z" />
<glyph unicode="&#x16d;" horiz-adv-x="1316" d="M0 0v0v0v0v0v0v0v0v0v0v0v0v0v0v0v0v0v0v0v0v0v0v0zM0 0v0v0v0v0v0v0v0v0v0v0v0v0v0v0v0v0v0v0z" />
<glyph unicode="&#x16e;" horiz-adv-x="1400" d="M0 0v0v0v0v0v0v0v0v0v0v0v0v0v0v0v0v0v0v0v0v0v0v0v0v0zM0 0v0v0v0v0v0v0v0v0v0v0v0v0v0v0v0v0zM0 0v0v0v0v0v0v0v0v0v0v0v0v0v0v0v0v0z" />
<glyph unicode="&#x16f;" horiz-adv-x="1316" d="M0 0v0v0v0v0v0v0v0v0v0v0v0v0v0v0v0v0v0v0v0v0v0v0zM0 0v0v0v0v0v0v0v0v0v0v0v0v0v0v0v0v0zM0 0v0v0v0v0v0v0v0v0v0v0v0v0v0v0v0v0z" />
<glyph unicode="&#x170;" horiz-adv-x="1400" d="M0 0v0v0v0v0v0v0v0v0v0v0v0v0v0v0v0v0v0v0v0v0v0v0v0v0zM0 0v0v0v0v0v0v0zM0 0v0v0v0v0v0v0z" />
<glyph unicode="&#x171;" horiz-adv-x="1316" d="M0 0v0v0v0v0v0v0v0v0v0v0v0v0v0v0v0v0v0v0v0v0v0v0zM0 0v0v0v0v0v0v0zM0 0v0v0v0v0v0v0z" />
<glyph unicode="&#x172;" horiz-adv-x="1400" d="M0 0v0v0v0v0v0v0v0v0v0v0v0v0v0v0v0v0v0v0v0v0v0v0v0v0v0v0v0v0v0v0v0v0v0v0v0v0v0v0v0v0v0v0v0v0v0v0z" />
<glyph unicode="&#x173;" horiz-adv-x="1316" d="M0 0v0v0v0v0v0v0v0v0v0v0v0v0v0v0v0v0v0v0v0v0v0v0v0v0v0v0v0v0v0v0v0v0v0v0v0v0v0v0v0v0v0z" />
<glyph unicode="&#x174;" horiz-adv-x="2082" d="M0 0v0v0v0v0v0v0v0v0v0v0v0v0v0v0v0v0v0v0v0v0v0v0v0v0v0zM0 0v0v0v0v0v0v0v0v0v0z" />
<glyph unicode="&#x175;" horiz-adv-x="1769" d="M0 0v0v0v0v0v0v0v0v0v0v0v0v0v0v0v0v0v0v0v0v0v0v0v0v0zM0 0v0v0v0v0v0v0v0v0v0z" />
<glyph unicode="&#x176;" horiz-adv-x="1172" d="M0 0v0v0v0v0v0v0v0v0v0v0v0v0v0v0v0v0v0v0v0v0v0zM0 0v0v0v0v0v0v0v0v0v0z" />
<glyph unicode="&#x177;" horiz-adv-x="1104" d="M0 0v0v0v0v0v0v0v0v0v0v0v0v0v0v0v0v0v0v0v0v0v0v0v0v0zM0 0v0v0v0v0v0v0v0v0v0z" />
<glyph unicode="&#x178;" horiz-adv-x="1172" d="M0 0v0v0v0v0v0v0v0v0v0v0v0v0v0v0v0v0v0v0v0v0v0zM0 0v0v0v0v0v0v0v0v0v0v0v0v0v0v0v0v0zM0 0v0v0v0v0v0v0v0v0v0v0v0v0v0v0v0v0z" />
<glyph unicode="&#x179;" horiz-adv-x="1165" d="M0 0v0v0v0v0v0v0v0v0v0v0v0v0v0v0v0v0zM0 0v0v0v0v0v0v0z" />
<glyph unicode="&#x17a;" horiz-adv-x="1039" d="M0 0v0v0v0v0v0v0v0v0v0v0v0v0v0v0v0v0zM0 0v0v0v0v0v0v0z" />
<glyph unicode="&#x17b;" horiz-adv-x="1165" d="M0 0v0v0v0v0v0v0v0v0v0v0v0v0v0v0v0v0zM0 0v0v0v0v0v0v0v0v0v0v0v0v0v0v0v0v0z" />
<glyph unicode="&#x17c;" horiz-adv-x="1039" d="M0 0v0v0v0v0v0v0v0v0v0v0v0v0v0v0v0v0zM0 0v0v0v0v0v0v0v0v0v0v0v0v0v0v0v0v0z" />
<glyph unicode="&#x17d;" horiz-adv-x="1165" d="M0 0v0v0v0v0v0v0v0v0v0v0v0v0v0v0v0v0zM0 0v0v0v0v0v0v0v0v0v0z" />
<glyph unicode="&#x17e;" horiz-adv-x="1039" d="M0 0v0v0v0v0v0v0v0v0v0v0v0v0v0v0v0v0zM0 0v0v0v0v0v0v0v0v0v0z" />
<glyph unicode="&#x17f;" horiz-adv-x="657" d="M0 0v0v0v0v0v0v0v0v0v0v0v0v0v0v0v0v0v0v0v0v0v0v0v0z" />
<glyph unicode="&#x18f;" horiz-adv-x="1335" d="M0 0v0v0v0v0v0v0v0v0v0v0v0v0v0v0v0v0v0v0v0v0v0v0zM0 0v0v0v0v0v0v0v0v0v0v0v0z" />
<glyph unicode="&#x192;" horiz-adv-x="872" d="M0 0v0v0v0v0v0v0v0v0v0v0v0v0v0v0v0v0v0v0v0v0v0v0v0v0v0v0v0v0v0v0v0v0v0v0v0v0v0v0z" />
<glyph unicode="&#x1a0;" horiz-adv-x="1500" d="M0 0v0v0v0v0v0v0v0v0v0v0v0v0v0v0v0v0v0v0v0v0v0v0v0v0v0v0zM0 0v0v0v0v0v0v0v0v0v0v0v0v0v0v0z" />
<glyph unicode="&#x1a1;" horiz-adv-x="1203" d="M0 0v0v0v0v0v0v0v0v0v0v0v0v0v0v0v0v0v0v0v0v0v0v0v0zM0 0v0v0v0v0v0v0v0v0v0v0v0v0v0v0z" />
<glyph unicode="&#x1af;" horiz-adv-x="1591" d="M0 0v0v0v0v0v0v0v0v0v0v0v0v0v0v0v0v0v0v0v0v0v0v0v0v0v0v0v0v0v0v0v0v0v0v0v0v0v0v0v0v0z" />
<glyph unicode="&#x1b0;" horiz-adv-x="1433" d="M0 0v0v0v0v0v0v0v0v0v0v0v0v0v0v0v0v0v0v0v0v0v0v0v0v0v0v0v0v0v0v0v0v0v0v0v0v0v0v0z" />
<glyph unicode="&#x1cd;" d="M0 0v0v0v0v0v0v0v0v0v0v0v0v0v0v0v0v0zM0 0v0v0v0v0zM0 0v0v0v0v0v0v0v0v0v0z" />
<glyph unicode="&#x1ce;" horiz-adv-x="1188" d="M0 0v0v0v0v0v0v0v0v0v0v0v0v0v0v0v0v0v0v0v0v0v0v0v0zM0 0v0v0v0v0v0v0v0v0v0zM0 0v0v0v0v0v0v0v0v0v0z" />
<glyph unicode="&#x1cf;" horiz-adv-x="717" d="M0 0v0v0v0v0v0v0v0v0v0v0v0v0zM0 0v0v0v0v0v0v0v0v0v0z" />
<glyph unicode="&#x1d0;" horiz-adv-x="696" d="M0 0v0v0v0v0v0v0v0v0v0v0zM0 0v0v0v0v0v0v0v0v0v0z" />
<glyph unicode="&#x1d1;" horiz-adv-x="1407" d="M0 0v0v0v0v0v0v0v0v0v0v0zM0 0v0v0v0v0v0v0v0v0v0v0v0v0v0v0zM0 0v0v0v0v0v0v0v0v0v0z" />
<glyph unicode="&#x1d2;" horiz-adv-x="1168" d="M0 0v0v0v0v0v0v0v0v0v0v0zM0 0v0v0v0v0v0v0v0v0v0v0v0v0v0v0zM0 0v0v0v0v0v0v0v0v0v0z" />
<glyph unicode="&#x1d3;" horiz-adv-x="1400" d="M0 0v0v0v0v0v0v0v0v0v0v0v0v0v0v0v0v0v0v0v0v0v0v0v0v0zM0 0v0v0v0v0v0v0v0v0v0z" />
<glyph unicode="&#x1d4;" horiz-adv-x="1316" d="M0 0v0v0v0v0v0v0v0v0v0v0v0v0v0v0v0v0v0v0v0v0v0v0zM0 0v0v0v0v0v0v0v0v0v0z" />
<glyph unicode="&#x1d5;" horiz-adv-x="1400" d="M0 0v0v0v0v0v0v0v0v0v0v0v0v0v0v0v0v0v0v0v0v0v0v0v0v0zM0 0v0v0v0v0v0v0v0v0v0v0v0v0v0v0v0v0zM0 0v0v0v0v0v0v0v0v0v0v0v0v0v0v0v0v0zM0 0v0v0v0v0z" />
<glyph unicode="&#x1d6;" horiz-adv-x="1316" d="M0 0v0v0v0v0v0v0v0v0v0v0v0v0v0v0v0v0v0v0v0v0v0v0zM0 0v0v0v0v0v0v0v0v0v0v0v0v0v0v0v0v0zM0 0v0v0v0v0v0v0v0v0v0v0v0v0v0v0v0v0zM0 0v0v0v0v0z" />
<glyph unicode="&#x1d7;" horiz-adv-x="1400" d="M0 0v0v0v0v0v0v0v0v0v0v0v0v0v0v0v0v0v0v0v0v0v0v0v0v0zM0 0v0v0v0v0v0v0v0v0v0v0v0v0v0v0v0v0zM0 0v0v0v0v0v0v0v0v0v0v0v0v0v0v0v0v0zM0 0v0v0v0v0v0v0z" />
<glyph unicode="&#x1d8;" horiz-adv-x="1316" d="M0 0v0v0v0v0v0v0v0v0v0v0v0v0v0v0v0v0v0v0v0v0v0v0zM0 0v0v0v0v0v0v0v0v0v0v0v0v0v0v0v0v0zM0 0v0v0v0v0v0v0v0v0v0v0v0v0v0v0v0v0zM0 0v0v0v0v0v0v0z" />
<glyph unicode="&#x1d9;" horiz-adv-x="1400" d="M0 0v0v0v0v0v0v0v0v0v0v0v0v0v0v0v0v0v0v0v0v0v0v0v0v0zM0 0v0v0v0v0v0v0v0v0v0zM0 0v0v0v0v0v0v0v0v0v0v0v0v0v0v0v0v0zM0 0v0v0v0v0v0v0v0v0v0v0v0v0v0v0v0v0z" />
<glyph unicode="&#x1da;" horiz-adv-x="1316" d="M0 0v0v0v0v0v0v0v0v0v0v0v0v0v0v0v0v0v0v0v0v0v0v0zM0 0v0v0v0v0v0v0v0v0v0zM0 0v0v0v0v0v0v0v0v0v0v0v0v0v0v0v0v0zM0 0v0v0v0v0v0v0v0v0v0v0v0v0v0v0v0v0z" />
<glyph unicode="&#x1db;" horiz-adv-x="1400" d="M0 0v0v0v0v0v0v0v0v0v0v0v0v0v0v0v0v0v0v0v0v0v0v0v0v0zM0 0v0v0v0v0v0v0v0v0v0v0v0v0v0v0v0v0zM0 0v0v0v0v0v0v0v0v0v0v0v0v0v0v0v0v0zM0 0v0v0v0v0v0v0z" />
<glyph unicode="&#x1dc;" horiz-adv-x="1316" d="M0 0v0v0v0v0v0v0v0v0v0v0v0v0v0v0v0v0v0v0v0v0v0v0zM0 0v0v0v0v0v0v0v0v0v0v0v0v0v0v0v0v0zM0 0v0v0v0v0v0v0v0v0v0v0v0v0v0v0v0v0zM0 0v0v0v0v0v0v0z" />
<glyph unicode="&#x1e6;" horiz-adv-x="1330" d="M0 0v0v0v0v0v0v0v0v0v0v0v0v0v0v0v0v0v0v0v0v0v0v0v0v0v0v0v0v0v0v0zM0 0v0v0v0v0v0v0v0v0v0z" />
<glyph unicode="&#x1e7;" horiz-adv-x="1083" d="M0 0v0v0v0v0v0v0v0v0v0v0v0v0v0v0v0v0v0v0v0v0v0v0v0v0v0v0v0v0v0v0v0v0v0v0v0zM0 0v0v0v0v0v0v0v0v0v0v0v0v0zM0 0v0v0v0v0v0v0v0v0v0v0v0v0v0v0zM0 0v0v0v0v0v0v0v0v0v0z" />
<glyph unicode="&#x1f0;" horiz-adv-x="656" d="M0 0v0v0v0v0v0v0v0v0v0v0v0v0v0v0v0v0v0v0v0zM0 0v0v0v0v0v0v0v0v0v0z" />
<glyph unicode="&#x1f4;" horiz-adv-x="1330" d="M0 0v0v0v0v0v0v0v0v0v0v0v0v0v0v0v0v0v0v0v0v0v0v0v0v0v0v0v0v0v0v0zM0 0v0v0v0v0v0v0z" />
<glyph unicode="&#x1f5;" horiz-adv-x="1083" d="M0 0v0v0v0v0v0v0v0v0v0v0v0v0v0v0v0v0v0v0v0v0v0v0v0v0v0v0v0v0v0v0v0v0v0v0v0zM0 0v0v0v0v0v0v0v0v0v0v0v0v0zM0 0v0v0v0v0v0v0v0v0v0v0v0v0v0v0zM0 0v0v0v0v0v0v0z" />
<glyph unicode="&#x1fa;" d="M0 0v0v0v0v0v0v0v0v0v0v0v0v0v0v0v0v0zM0 0v0v0v0v0zM0 0v0v0v0v0v0v0v0v0v0v0v0v0v0v0v0v0zM0 0v0v0v0v0v0v0v0v0v0v0v0v0v0v0v0v0zM0 0v0v0v0v0v0v0z" />
<glyph unicode="&#x1fb;" horiz-adv-x="1188" d="M0 0v0v0v0v0v0v0v0v0v0v0v0v0v0v0v0v0v0v0v0v0v0v0v0zM0 0v0v0v0v0v0v0v0v0v0zM0 0v0v0v0v0v0v0v0v0v0v0v0v0v0v0v0v0zM0 0v0v0v0v0v0v0v0v0v0v0v0v0v0v0v0v0zM0 0v0v0v0v0v0v0z" />
<glyph unicode="&#x1fc;" horiz-adv-x="1784" d="M0 0v0v0v0v0v0v0v0v0v0v0v0v0v0v0v0v0v0v0v0v0v0v0v0v0v0v0v0v0v0v0zM0 0v0v0v0zM0 0v0v0v0v0v0v0z" />
<glyph unicode="&#x1fd;" horiz-adv-x="1685" d="M0 0v0v0v0v0v0v0v0v0v0v0v0v0v0v0v0v0v0v0v0v0v0v0v0v0v0v0v0v0v0v0v0v0v0v0v0v0v0v0v0v0v0v0v0v0v0v0v0v0zM0 0v0v0v0v0v0v0v0v0v0v0v0v0v0v0v0v0zM0 0v0v0v0v0v0v0v0v0v0v0v0zM0 0v0v0v0v0v0v0z" />
<glyph unicode="&#x1fe;" horiz-adv-x="1407" d="M0 0v0v0v0v0v0v0v0v0v0v0v0v0v0v0v0v0v0v0v0v0v0v0v0v0v0zM0 0v0v0v0v0v0v0v0v0v0v0v0v0zM0 0v0v0v0v0v0v0v0v0v0v0v0zM0 0v0v0v0v0v0v0z" />
<glyph unicode="&#x1ff;" horiz-adv-x="1168" d="M0 0v0v0v0v0v0v0v0v0v0v0v0v0v0v0v0v0v0v0v0v0v0v0v0v0v0v0v0zM0 0v0v0v0v0v0v0v0v0v0v0v0zM0 0v0v0v0v0v0v0v0v0v0v0v0zM0 0v0v0v0v0v0v0z" />
<glyph unicode="&#x218;" horiz-adv-x="1130" d="M0 0v0v0v0v0v0v0v0v0v0v0v0v0v0v0v0v0v0v0v0v0v0v0v0v0v0v0v0v0v0v0v0v0v0v0zM0 0v0v0v0v0v0z" />
<glyph unicode="&#x219;" horiz-adv-x="962" d="M0 0v0v0v0v0v0v0v0v0v0v0v0v0v0v0v0v0v0v0v0v0v0v0v0v0v0v0v0v0v0v0v0v0v0v0zM0 0v0v0v0v0v0z" />
<glyph unicode="&#x21a;" horiz-adv-x="1207" d="M0 0v0v0v0v0v0v0v0v0v0v0v0v0v0v0v0v0zM0 0v0v0v0v0v0z" />
<glyph unicode="&#x21b;" horiz-adv-x="772" d="M0 0v0v0v0v0v0v0v0v0v0v0v0v0v0v0v0v0v0v0v0v0zM0 0v0v0v0v0v0z" />
<glyph unicode="&#x237;" horiz-adv-x="656" d="M0 0v0v0v0v0v0v0v0v0v0v0v0v0v0v0v0v0v0v0v0z" />
<glyph unicode="&#x251;" horiz-adv-x="1162" d="M0 0v0v0v0v0v0v0v0v0v0v0v0v0v0v0v0v0v0v0v0v0v0v0v0v0zM0 0v0v0v0v0v0v0v0v0v0v0v0v0v0v0v0v0v0v0v0v0v0v0z" />
<glyph unicode="&#x259;" horiz-adv-x="1068" d="M0 0v0v0v0v0v0v0v0v0v0v0v0v0v0v0v0v0v0v0v0v0v0v0v0v0v0v0v0zM0 0v0v0v0v0v0v0v0v0v0v0v0z" />
<glyph unicode="&#x261;" horiz-adv-x="1059" d="M0 0v0v0v0v0v0v0v0v0v0v0v0v0v0v0v0v0v0v0v0v0v0v0v0v0v0v0v0v0v0v0v0v0v0v0v0v0v0v0v0zM0 0v0v0v0v0v0v0v0v0v0v0v0v0v0v0v0v0v0v0v0v0v0v0z" />
<glyph unicode="&#x2bb;" horiz-adv-x="756" d="M0 0v0v0v0v0v0v0v0v0v0v0v0v0v0v0v0v0v0v0v0v0v0v0v0v0v0z" />
<glyph unicode="&#x2bc;" horiz-adv-x="756" d="M0 0v0v0v0v0v0v0v0v0v0v0v0v0v0v0v0v0v0v0v0v0v0v0v0v0v0z" />
<glyph unicode="&#x2be;" horiz-adv-x="548" d="M0 0v0v0v0v0v0v0v0v0v0v0v0v0v0v0v0v0v0v0v0z" />
<glyph unicode="&#x2bf;" horiz-adv-x="548" d="M0 0v0v0v0v0v0v0v0v0v0v0v0v0v0v0v0v0v0v0v0z" />
<glyph unicode="&#x2c6;" horiz-adv-x="1089" d="M0 0v0v0v0v0v0v0v0v0v0z" />
<glyph unicode="&#x2c7;" horiz-adv-x="1089" d="M0 0v0v0v0v0v0v0v0v0v0z" />
<glyph unicode="&#x2c8;" horiz-adv-x="758" d="M0 0v0v0v0v0z" />
<glyph unicode="&#x2c9;" horiz-adv-x="1070" d="M0 0v0v0v0v0z" />
<glyph unicode="&#x2ca;" horiz-adv-x="855" d="M0 0v0v0v0v0v0v0z" />
<glyph unicode="&#x2cb;" horiz-adv-x="888" d="M0 0v0v0v0v0v0v0z" />
<glyph unicode="&#x2cc;" horiz-adv-x="758" d="M0 0v0v0v0v0z" />
<glyph unicode="&#x2d8;" horiz-adv-x="952" d="M0 0v0v0v0v0v0v0v0v0v0v0v0v0v0v0v0v0v0v0z" />
<glyph unicode="&#x2d9;" horiz-adv-x="784" d="M0 0v0v0v0v0v0v0v0v0v0v0v0v0v0v0v0v0z" />
<glyph unicode="&#x2da;" horiz-adv-x="857" d="M0 0v0v0v0v0v0v0v0v0v0v0v0v0v0v0v0v0zM0 0v0v0v0v0v0v0v0v0v0v0v0v0v0v0v0v0z" />
<glyph unicode="&#x2db;" horiz-adv-x="808" d="M0 0v0v0v0v0v0v0v0v0v0v0v0v0v0v0v0v0v0v0v0v0z" />
<glyph unicode="&#x2dc;" horiz-adv-x="1141" d="M0 0v0v0v0v0v0v0v0v0v0v0v0v0v0v0v0v0v0v0v0v0z" />
<glyph unicode="&#x2dd;" horiz-adv-x="1133" d="M0 0v0v0v0v0v0v0zM0 0v0v0v0v0v0v0z" />
<glyph unicode="&#x2f3;" horiz-adv-x="857" d="M0 0v0v0v0v0v0v0v0v0v0v0v0v0v0v0v0v0zM0 0v0v0v0v0v0v0v0v0v0v0v0v0v0v0v0v0z" />
<glyph unicode="&#x300;" horiz-adv-x="0" d="M0 0v0v0v0v0v0v0z" />
<glyph unicode="&#x301;" horiz-adv-x="0" d="M0 0v0v0v0v0v0v0z" />
<glyph unicode="&#x302;" horiz-adv-x="0" d="M0 0v0v0v0v0v0v0v0v0v0z" />
<glyph unicode="&#x303;" horiz-adv-x="0" d="M0 0v0v0v0v0v0v0v0v0v0v0v0v0v0v0v0v0v0v0v0v0z" />
<glyph unicode="&#x304;" horiz-adv-x="0" d="M0 0v0v0v0v0z" />
<glyph unicode="&#x306;" horiz-adv-x="0" d="M0 0v0v0v0v0v0v0v0v0v0v0v0v0v0v0v0v0v0v0z" />
<glyph unicode="&#x307;" horiz-adv-x="0" d="M0 0v0v0v0v0v0v0v0v0v0v0v0v0v0v0v0v0z" />
<glyph unicode="&#x308;" horiz-adv-x="0" d="M0 0v0v0v0v0v0v0v0v0v0v0v0v0v0v0v0v0zM0 0v0v0v0v0v0v0v0v0v0v0v0v0v0v0v0v0z" />
<glyph unicode="&#x309;" horiz-adv-x="0" d="M0 0v0v0v0v0v0v0v0v0v0v0v0v0v0v0v0v0v0v0v0v0v0v0v0v0v0v0v0v0v0v0v0z" />
<glyph unicode="&#x30a;" horiz-adv-x="0" d="M0 0v0v0v0v0v0v0v0v0v0v0v0v0v0v0v0v0zM0 0v0v0v0v0v0v0v0v0v0v0v0v0v0v0v0v0z" />
<glyph unicode="&#x30b;" horiz-adv-x="0" d="M0 0v0v0v0v0v0v0zM0 0v0v0v0v0v0v0z" />
<glyph unicode="&#x30c;" horiz-adv-x="0" d="M0 0v0v0v0v0v0v0v0v0v0z" />
<glyph unicode="&#x30f;" horiz-adv-x="1052" d="M0 0v0v0v0v0v0v0zM0 0v0v0v0v0v0v0z" />
<glyph unicode="&#x31b;" horiz-adv-x="0" d="M0 0v0v0v0v0v0v0v0v0v0v0v0v0v0v0v0v0z" />
<glyph unicode="&#x323;" horiz-adv-x="0" d="M0 0v0v0v0v0v0v0v0v0v0v0v0v0v0v0v0v0z" />
<glyph unicode="&#x324;" horiz-adv-x="0" d="M0 0v0v0v0v0v0v0v0v0v0v0v0v0v0v0v0v0zM0 0v0v0v0v0v0v0v0v0v0v0v0v0v0v0v0v0z" />
<glyph unicode="&#x326;" horiz-adv-x="0" d="M0 0v0v0v0v0v0z" />
<glyph unicode="&#x327;" horiz-adv-x="0" d="M0 0v0v0v0v0v0v0v0v0v0v0v0v0v0v0v0v0v0v0v0v0v0v0v0v0v0v0v0v0z" />
<glyph unicode="&#x328;" horiz-adv-x="0" d="M0 0v0v0v0v0v0v0v0v0v0v0v0v0v0v0v0v0v0v0v0v0z" />
<glyph unicode="&#x32e;" horiz-adv-x="0" d="M0 0v0v0v0v0v0v0v0v0v0v0v0v0v0v0v0v0v0v0z" />
<glyph unicode="&#x331;" horiz-adv-x="0" d="M0 0v0v0v0v0z" />
<glyph unicode="&#x3bc;" horiz-adv-x="1368" d="M0 0v0v0v0v0v0v0v0v0v0v0v0v0v0v0v0v0v0v0v0v0v0v0v0v0v0v0v0v0v0v0v0v0v0v0v0v0v0z" />
<glyph unicode="&#x3c0;" horiz-adv-x="1495" d="M0 0v0v0v0v0v0v0v0v0v0v0v0v0v0v0v0v0v0v0v0v0v0v0v0v0v0v0v0v0v0v0v0v0v0v0v0v0v0v0v0v0v0v0v0v0v0v0z" />
<glyph unicode="&#x1e00;" d="M0 0v0v0v0v0v0v0v0v0v0v0v0v0v0v0v0v0zM0 0v0v0v0v0zM0 0v0v0v0v0v0v0v0v0v0v0v0v0v0v0v0v0zM0 0v0v0v0v0v0v0v0v0v0v0v0v0v0v0v0v0z" />
<glyph unicode="&#x1e01;" horiz-adv-x="1188" d="M0 0v0v0v0v0v0v0v0v0v0v0v0v0v0v0v0v0v0v0v0v0v0v0v0zM0 0v0v0v0v0v0v0v0v0v0zM0 0v0v0v0v0v0v0v0v0v0v0v0v0v0v0v0v0zM0 0v0v0v0v0v0v0v0v0v0v0v0v0v0v0v0v0z" />
<glyph unicode="&#x1e0a;" horiz-adv-x="1428" d="M0 0v0v0v0v0v0v0v0v0v0v0v0v0zM0 0v0v0v0v0v0v0v0v0v0v0zM0 0v0v0v0v0v0v0v0v0v0v0v0v0v0v0v0v0z" />
<glyph unicode="&#x1e0c;" horiz-adv-x="1428" d="M0 0v0v0v0v0v0v0v0v0v0v0v0v0zM0 0v0v0v0v0v0v0v0v0v0v0zM0 0v0v0v0v0v0v0v0v0v0v0v0v0v0v0v0v0z" />
<glyph unicode="&#x1e0d;" horiz-adv-x="1242" d="M0 0v0v0v0v0v0v0v0v0v0v0v0v0v0v0v0v0v0v0zM0 0v0v0v0v0v0v0v0v0v0v0v0v0zM0 0v0v0v0v0v0v0v0v0v0v0v0v0v0v0v0v0z" />
<glyph unicode="&#x1e0e;" horiz-adv-x="1428" d="M0 0v0v0v0v0v0v0v0v0v0v0v0v0zM0 0v0v0v0v0v0v0v0v0v0v0zM0 0v0v0v0v0z" />
<glyph unicode="&#x1e0f;" horiz-adv-x="1242" d="M0 0v0v0v0v0v0v0v0v0v0v0v0v0v0v0v0v0v0v0zM0 0v0v0v0v0v0v0v0v0v0v0v0v0zM0 0v0v0v0v0z" />
<glyph unicode="&#x1e20;" horiz-adv-x="1330" d="M0 0v0v0v0v0v0v0v0v0v0v0v0v0v0v0v0v0v0v0v0v0v0v0v0v0v0v0v0v0v0v0zM0 0v0v0v0v0z" />
<glyph unicode="&#x1e21;" horiz-adv-x="1083" d="M0 0v0v0v0v0v0v0v0v0v0v0v0v0v0v0v0v0v0v0v0v0v0v0v0v0v0v0v0v0v0v0v0v0v0v0v0zM0 0v0v0v0v0v0v0v0v0v0v0v0v0zM0 0v0v0v0v0v0v0v0v0v0v0v0v0v0v0zM0 0v0v0v0v0z" />
<glyph unicode="&#x1e24;" horiz-adv-x="1541" d="M0 0v0v0v0v0v0v0v0v0v0v0v0v0v0v0v0v0v0v0v0v0v0v0v0v0v0v0v0v0zM0 0v0v0v0v0v0v0v0v0v0v0v0v0v0v0v0v0z" />
<glyph unicode="&#x1e25;" horiz-adv-x="1378" d="M0 0v0v0v0v0v0v0v0v0v0v0v0v0v0v0v0v0v0v0v0v0v0v0v0v0v0v0v0zM0 0v0v0v0v0v0v0v0v0v0v0v0v0v0v0v0v0z" />
<glyph unicode="&#x1e2a;" horiz-adv-x="1541" d="M0 0v0v0v0v0v0v0v0v0v0v0v0v0v0v0v0v0v0v0v0v0v0v0v0v0v0v0v0v0zM0 0v0v0v0v0v0v0v0v0v0v0v0v0v0v0v0v0v0v0z" />
<glyph unicode="&#x1e2b;" horiz-adv-x="1378" d="M0 0v0v0v0v0v0v0v0v0v0v0v0v0v0v0v0v0v0v0v0v0v0v0v0v0v0v0v0zM0 0v0v0v0v0v0v0v0v0v0v0v0v0v0v0v0v0v0v0z" />
<glyph unicode="&#x1e36;" horiz-adv-x="1066" d="M0 0v0v0v0v0v0v0v0v0v0v0v0v0v0v0zM0 0v0v0v0v0v0v0v0v0v0v0v0v0v0v0v0v0z" />
<glyph unicode="&#x1e37;" horiz-adv-x="664" d="M0 0v0v0v0v0v0v0v0v0v0v0zM0 0v0v0v0v0v0v0v0v0v0v0v0v0v0v0v0v0z" />
<glyph unicode="&#x1e38;" horiz-adv-x="1066" d="M0 0v0v0v0v0v0v0v0v0v0v0v0v0v0v0zM0 0v0v0v0v0v0v0v0v0v0v0v0v0v0v0v0v0zM0 0v0v0v0v0z" />
<glyph unicode="&#x1e39;" horiz-adv-x="664" d="M0 0v0v0v0v0v0v0v0v0v0v0zM0 0v0v0v0v0v0v0v0v0v0v0v0v0v0v0v0v0zM0 0v0v0v0v0z" />
<glyph unicode="&#x1e3a;" horiz-adv-x="1066" d="M0 0v0v0v0v0v0v0v0v0v0v0v0v0v0v0zM0 0v0v0v0v0z" />
<glyph unicode="&#x1e3b;" horiz-adv-x="664" d="M0 0v0v0v0v0v0v0v0v0v0v0zM0 0v0v0v0v0z" />
<glyph unicode="&#x1e3e;" horiz-adv-x="2011" d="M0 0v0v0v0v0v0v0v0v0v0v0v0v0v0v0v0v0v0v0v0v0v0v0v0v0v0v0v0v0zM0 0v0v0v0v0v0v0z" />
<glyph unicode="&#x1e3f;" horiz-adv-x="2094" d="M0 0v0v0v0v0v0v0v0v0v0v0v0v0v0v0v0v0v0v0v0v0v0v0v0v0v0v0v0v0v0v0v0v0v0v0v0v0v0v0v0v0v0zM0 0v0v0v0v0v0v0z" />
<glyph unicode="&#x1e42;" horiz-adv-x="2011" d="M0 0v0v0v0v0v0v0v0v0v0v0v0v0v0v0v0v0v0v0v0v0v0v0v0v0v0v0v0v0zM0 0v0v0v0v0v0v0v0v0v0v0v0v0v0v0v0v0z" />
<glyph unicode="&#x1e43;" horiz-adv-x="2094" d="M0 0v0v0v0v0v0v0v0v0v0v0v0v0v0v0v0v0v0v0v0v0v0v0v0v0v0v0v0v0v0v0v0v0v0v0v0v0v0v0v0v0v0zM0 0v0v0v0v0v0v0v0v0v0v0v0v0v0v0v0v0z" />
<glyph unicode="&#x1e44;" horiz-adv-x="1579" d="M0 0v0v0v0v0v0v0v0v0v0v0v0v0v0v0v0v0v0v0v0v0v0v0zM0 0v0v0v0v0v0v0v0v0v0v0v0v0v0v0v0v0z" />
<glyph unicode="&#x1e45;" horiz-adv-x="1392" d="M0 0v0v0v0v0v0v0v0v0v0v0v0v0v0v0v0v0v0v0v0v0v0v0v0v0v0v0zM0 0v0v0v0v0v0v0v0v0v0v0v0v0v0v0v0v0z" />
<glyph unicode="&#x1e46;" horiz-adv-x="1579" d="M0 0v0v0v0v0v0v0v0v0v0v0v0v0v0v0v0v0v0v0v0v0v0v0zM0 0v0v0v0v0v0v0v0v0v0v0v0v0v0v0v0v0z" />
<glyph unicode="&#x1e47;" horiz-adv-x="1392" d="M0 0v0v0v0v0v0v0v0v0v0v0v0v0v0v0v0v0v0v0v0v0v0v0v0v0v0v0zM0 0v0v0v0v0v0v0v0v0v0v0v0v0v0v0v0v0z" />
<glyph unicode="&#x1e48;" horiz-adv-x="1579" d="M0 0v0v0v0v0v0v0v0v0v0v0v0v0v0v0v0v0v0v0v0v0v0v0zM0 0v0v0v0v0z" />
<glyph unicode="&#x1e49;" horiz-adv-x="1392" d="M0 0v0v0v0v0v0v0v0v0v0v0v0v0v0v0v0v0v0v0v0v0v0v0v0v0v0v0zM0 0v0v0v0v0z" />
<glyph unicode="&#x1e59;" horiz-adv-x="919" d="M0 0v0v0v0v0v0v0v0v0v0v0v0v0v0v0v0v0v0v0v0v0v0v0zM0 0v0v0v0v0v0v0v0v0v0v0v0v0v0v0v0v0z" />
<glyph unicode="&#x1e5a;" horiz-adv-x="1281" d="M0 0v0v0v0v0v0v0v0v0v0v0v0v0v0v0v0v0v0v0v0v0v0zM0 0v0v0v0v0v0v0v0v0v0zM0 0v0v0v0v0v0v0v0v0v0v0v0v0v0v0v0v0z" />
<glyph unicode="&#x1e5b;" horiz-adv-x="919" d="M0 0v0v0v0v0v0v0v0v0v0v0v0v0v0v0v0v0v0v0v0v0v0v0zM0 0v0v0v0v0v0v0v0v0v0v0v0v0v0v0v0v0z" />
<glyph unicode="&#x1e5c;" horiz-adv-x="1281" d="M0 0v0v0v0v0v0v0v0v0v0v0v0v0v0v0v0v0v0v0v0v0v0zM0 0v0v0v0v0v0v0v0v0v0zM0 0v0v0v0v0v0v0v0v0v0v0v0v0v0v0v0v0zM0 0v0v0v0v0z" />
<glyph unicode="&#x1e5d;" horiz-adv-x="919" d="M0 0v0v0v0v0v0v0v0v0v0v0v0v0v0v0v0v0v0v0v0v0v0v0zM0 0v0v0v0v0v0v0v0v0v0v0v0v0v0v0v0v0zM0 0v0v0v0v0z" />
<glyph unicode="&#x1e5e;" horiz-adv-x="1281" d="M0 0v0v0v0v0v0v0v0v0v0v0v0v0v0v0v0v0v0v0v0v0v0zM0 0v0v0v0v0v0v0v0v0v0zM0 0v0v0v0v0z" />
<glyph unicode="&#x1e5f;" horiz-adv-x="919" d="M0 0v0v0v0v0v0v0v0v0v0v0v0v0v0v0v0v0v0v0v0v0v0v0zM0 0v0v0v0v0z" />
<glyph unicode="&#x1e60;" horiz-adv-x="1130" d="M0 0v0v0v0v0v0v0v0v0v0v0v0v0v0v0v0v0v0v0v0v0v0v0v0v0v0v0v0v0v0v0v0v0v0v0zM0 0v0v0v0v0v0v0v0v0v0v0v0v0v0v0v0v0z" />
<glyph unicode="&#x1e61;" horiz-adv-x="962" d="M0 0v0v0v0v0v0v0v0v0v0v0v0v0v0v0v0v0v0v0v0v0v0v0v0v0v0v0v0v0v0v0v0v0v0v0zM0 0v0v0v0v0v0v0v0v0v0v0v0v0v0v0v0v0z" />
<glyph unicode="&#x1e62;" horiz-adv-x="1130" d="M0 0v0v0v0v0v0v0v0v0v0v0v0v0v0v0v0v0v0v0v0v0v0v0v0v0v0v0v0v0v0v0v0v0v0v0zM0 0v0v0v0v0v0v0v0v0v0v0v0v0v0v0v0v0z" />
<glyph unicode="&#x1e63;" horiz-adv-x="962" d="M0 0v0v0v0v0v0v0v0v0v0v0v0v0v0v0v0v0v0v0v0v0v0v0v0v0v0v0v0v0v0v0v0v0v0v0zM0 0v0v0v0v0v0v0v0v0v0v0v0v0v0v0v0v0z" />
<glyph unicode="&#x1e6c;" horiz-adv-x="1207" d="M0 0v0v0v0v0v0v0v0v0v0v0v0v0v0v0v0v0zM0 0v0v0v0v0v0v0v0v0v0v0v0v0v0v0v0v0z" />
<glyph unicode="&#x1e6d;" horiz-adv-x="772" d="M0 0v0v0v0v0v0v0v0v0v0v0v0v0v0v0v0v0v0v0v0v0zM0 0v0v0v0v0v0v0v0v0v0v0v0v0v0v0v0v0z" />
<glyph unicode="&#x1e6e;" horiz-adv-x="1207" d="M0 0v0v0v0v0v0v0v0v0v0v0v0v0v0v0v0v0zM0 0v0v0v0v0z" />
<glyph unicode="&#x1e6f;" horiz-adv-x="772" d="M0 0v0v0v0v0v0v0v0v0v0v0v0v0v0v0v0v0v0v0v0v0zM0 0v0v0v0v0z" />
<glyph unicode="&#x1e80;" horiz-adv-x="2082" d="M0 0v0v0v0v0v0v0v0v0v0v0v0v0v0v0v0v0v0v0v0v0v0v0v0v0v0zM0 0v0v0v0v0v0v0z" />
<glyph unicode="&#x1e81;" horiz-adv-x="1769" d="M0 0v0v0v0v0v0v0v0v0v0v0v0v0v0v0v0v0v0v0v0v0v0v0v0v0zM0 0v0v0v0v0v0v0z" />
<glyph unicode="&#x1e82;" horiz-adv-x="2082" d="M0 0v0v0v0v0v0v0v0v0v0v0v0v0v0v0v0v0v0v0v0v0v0v0v0v0v0zM0 0v0v0v0v0v0v0z" />
<glyph unicode="&#x1e83;" horiz-adv-x="1769" d="M0 0v0v0v0v0v0v0v0v0v0v0v0v0v0v0v0v0v0v0v0v0v0v0v0v0zM0 0v0v0v0v0v0v0z" />
<glyph unicode="&#x1e84;" horiz-adv-x="2082" d="M0 0v0v0v0v0v0v0v0v0v0v0v0v0v0v0v0v0v0v0v0v0v0v0v0v0v0zM0 0v0v0v0v0v0v0v0v0v0v0v0v0v0v0v0v0zM0 0v0v0v0v0v0v0v0v0v0v0v0v0v0v0v0v0z" />
<glyph unicode="&#x1e85;" horiz-adv-x="1769" d="M0 0v0v0v0v0v0v0v0v0v0v0v0v0v0v0v0v0v0v0v0v0v0v0v0v0zM0 0v0v0v0v0v0v0v0v0v0v0v0v0v0v0v0v0zM0 0v0v0v0v0v0v0v0v0v0v0v0v0v0v0v0v0z" />
<glyph unicode="&#x1e86;" horiz-adv-x="2082" d="M0 0v0v0v0v0v0v0v0v0v0v0v0v0v0v0v0v0v0v0v0v0v0v0v0v0v0zM0 0v0v0v0v0v0v0v0v0v0v0v0v0v0v0v0v0z" />
<glyph unicode="&#x1e87;" horiz-adv-x="1769" d="M0 0v0v0v0v0v0v0v0v0v0v0v0v0v0v0v0v0v0v0v0v0v0v0v0v0zM0 0v0v0v0v0v0v0v0v0v0v0v0v0v0v0v0v0z" />
<glyph unicode="&#x1e8e;" horiz-adv-x="1172" d="M0 0v0v0v0v0v0v0v0v0v0v0v0v0v0v0v0v0v0v0v0v0v0zM0 0v0v0v0v0v0v0v0v0v0v0v0v0v0v0v0v0z" />
<glyph unicode="&#x1e8f;" horiz-adv-x="1104" d="M0 0v0v0v0v0v0v0v0v0v0v0v0v0v0v0v0v0v0v0v0v0v0v0v0v0zM0 0v0v0v0v0v0v0v0v0v0v0v0v0v0v0v0v0z" />
<glyph unicode="&#x1e90;" horiz-adv-x="1165" d="M0 0v0v0v0v0v0v0v0v0v0v0v0v0v0v0v0v0zM0 0v0v0v0v0v0v0v0v0v0z" />
<glyph unicode="&#x1e91;" horiz-adv-x="1039" d="M0 0v0v0v0v0v0v0v0v0v0v0v0v0v0v0v0v0zM0 0v0v0v0v0v0v0v0v0v0z" />
<glyph unicode="&#x1e92;" horiz-adv-x="1165" d="M0 0v0v0v0v0v0v0v0v0v0v0v0v0v0v0v0v0zM0 0v0v0v0v0v0v0v0v0v0v0v0v0v0v0v0v0z" />
<glyph unicode="&#x1e93;" horiz-adv-x="1039" d="M0 0v0v0v0v0v0v0v0v0v0v0v0v0v0v0v0v0zM0 0v0v0v0v0v0v0v0v0v0v0v0v0v0v0v0v0z" />
<glyph unicode="&#x1e97;" horiz-adv-x="772" d="M0 0v0v0v0v0v0v0v0v0v0v0v0v0v0v0v0v0v0v0v0v0zM0 0v0v0v0v0v0v0v0v0v0v0v0v0v0v0v0v0zM0 0v0v0v0v0v0v0v0v0v0v0v0v0v0v0v0v0z" />
<glyph unicode="&#x1e98;" horiz-adv-x="1769" d="M0 0v0v0v0v0v0v0v0v0v0v0v0v0v0v0v0v0v0v0v0v0v0v0v0v0zM0 0v0v0v0v0v0v0v0v0v0v0v0v0v0v0v0v0zM0 0v0v0v0v0v0v0v0v0v0v0v0v0v0v0v0v0z" />
<glyph unicode="&#x1e99;" horiz-adv-x="1104" d="M0 0v0v0v0v0v0v0v0v0v0v0v0v0v0v0v0v0v0v0v0v0v0v0v0v0zM0 0v0v0v0v0v0v0v0v0v0v0v0v0v0v0v0v0zM0 0v0v0v0v0v0v0v0v0v0v0v0v0v0v0v0v0z" />
<glyph unicode="&#x1e9e;" horiz-adv-x="1367" d="M0 0v0v0v0v0v0v0v0v0v0v0v0v0v0v0v0v0v0v0v0v0v0v0v0v0v0v0v0v0v0v0v0v0v0v0v0v0v0v0v0v0v0v0z" />
<glyph unicode="&#x1ea0;" d="M0 0v0v0v0v0v0v0v0v0v0v0v0v0v0v0v0v0zM0 0v0v0v0v0zM0 0v0v0v0v0v0v0v0v0v0v0v0v0v0v0v0v0z" />
<glyph unicode="&#x1ea1;" horiz-adv-x="1188" d="M0 0v0v0v0v0v0v0v0v0v0v0v0v0v0v0v0v0v0v0v0v0v0v0v0zM0 0v0v0v0v0v0v0v0v0v0zM0 0v0v0v0v0v0v0v0v0v0v0v0v0v0v0v0v0z" />
<glyph unicode="&#x1ea2;" d="M0 0v0v0v0v0v0v0v0v0v0v0v0v0v0v0v0v0zM0 0v0v0v0v0zM0 0v0v0v0v0v0v0v0v0v0v0v0v0v0v0v0v0v0v0v0v0v0v0v0v0v0v0v0v0v0v0v0z" />
<glyph unicode="&#x1ea3;" horiz-adv-x="1188" d="M0 0v0v0v0v0v0v0v0v0v0v0v0v0v0v0v0v0v0v0v0v0v0v0v0zM0 0v0v0v0v0v0v0v0v0v0zM0 0v0v0v0v0v0v0v0v0v0v0v0v0v0v0v0v0v0v0v0v0v0v0v0v0v0v0v0v0v0v0v0z" />
<glyph unicode="&#x1ea4;" d="M0 0v0v0v0v0v0v0v0v0v0v0v0v0v0v0v0v0zM0 0v0v0v0v0zM0 0v0v0v0v0v0v0v0v0v0zM0 0v0v0v0v0v0v0z" />
<glyph unicode="&#x1ea5;" horiz-adv-x="1188" d="M0 0v0v0v0v0v0v0v0v0v0v0v0v0v0v0v0v0v0v0v0v0v0v0v0zM0 0v0v0v0v0v0v0v0v0v0zM0 0v0v0v0v0v0v0v0v0v0zM0 0v0v0v0v0v0v0z" />
<glyph unicode="&#x1ea6;" d="M0 0v0v0v0v0v0v0v0v0v0v0v0v0v0v0v0v0zM0 0v0v0v0v0zM0 0v0v0v0v0v0v0v0v0v0zM0 0v0v0v0v0v0v0z" />
<glyph unicode="&#x1ea7;" horiz-adv-x="1188" d="M0 0v0v0v0v0v0v0v0v0v0v0v0v0v0v0v0v0v0v0v0v0v0v0v0zM0 0v0v0v0v0v0v0v0v0v0zM0 0v0v0v0v0v0v0v0v0v0zM0 0v0v0v0v0v0v0z" />
<glyph unicode="&#x1ea8;" d="M0 0v0v0v0v0v0v0v0v0v0v0v0v0v0v0v0v0zM0 0v0v0v0v0zM0 0v0v0v0v0v0v0v0v0v0zM0 0v0v0v0v0v0v0v0v0v0v0v0v0v0v0v0v0v0v0v0v0v0v0v0v0v0v0v0v0v0v0v0z" />
<glyph unicode="&#x1ea9;" horiz-adv-x="1188" d="M0 0v0v0v0v0v0v0v0v0v0v0v0v0v0v0v0v0v0v0v0v0v0v0v0zM0 0v0v0v0v0v0v0v0v0v0zM0 0v0v0v0v0v0v0v0v0v0zM0 0v0v0v0v0v0v0v0v0v0v0v0v0v0v0v0v0v0v0v0v0v0v0v0v0v0v0v0v0v0v0v0z" />
<glyph unicode="&#x1eaa;" d="M0 0v0v0v0v0v0v0v0v0v0v0v0v0v0v0v0v0zM0 0v0v0v0v0zM0 0v0v0v0v0v0v0v0v0v0v0v0v0v0v0v0v0v0v0v0v0v0v0zM0 0v0v0v0v0v0v0v0v0v0z" />
<glyph unicode="&#x1eab;" horiz-adv-x="1188" d="M0 0v0v0v0v0v0v0v0v0v0v0v0v0v0v0v0v0v0v0v0v0v0v0v0zM0 0v0v0v0v0v0v0v0v0v0zM0 0v0v0v0v0v0v0v0v0v0v0v0v0v0v0v0v0v0v0v0v0zM0 0v0v0v0v0v0v0v0v0v0z" />
<glyph unicode="&#x1eac;" d="M0 0v0v0v0v0v0v0v0v0v0v0v0v0v0v0v0v0zM0 0v0v0v0v0zM0 0v0v0v0v0v0v0v0v0v0v0v0v0v0v0v0v0zM0 0v0v0v0v0v0v0v0v0v0z" />
<glyph unicode="&#x1ead;" horiz-adv-x="1188" d="M0 0v0v0v0v0v0v0v0v0v0v0v0v0v0v0v0v0v0v0v0v0v0v0v0zM0 0v0v0v0v0v0v0v0v0v0zM0 0v0v0v0v0v0v0v0v0v0v0v0v0v0v0v0v0zM0 0v0v0v0v0v0v0v0v0v0z" />
<glyph unicode="&#x1eae;" d="M0 0v0v0v0v0v0v0v0v0v0v0v0v0v0v0v0v0zM0 0v0v0v0v0zM0 0v0v0v0v0v0v0v0v0v0v0v0v0v0v0v0v0v0v0zM0 0v0v0v0v0v0v0z" />
<glyph unicode="&#x1eaf;" horiz-adv-x="1188" d="M0 0v0v0v0v0v0v0v0v0v0v0v0v0v0v0v0v0v0v0v0v0v0v0v0zM0 0v0v0v0v0v0v0v0v0v0zM0 0v0v0v0v0v0v0v0v0v0v0v0v0v0v0v0v0v0v0zM0 0v0v0v0v0v0v0z" />
<glyph unicode="&#x1eb0;" d="M0 0v0v0v0v0v0v0v0v0v0v0v0v0v0v0v0v0zM0 0v0v0v0v0zM0 0v0v0v0v0v0v0v0v0v0v0v0v0v0v0v0v0v0v0zM0 0v0v0v0v0v0v0z" />
<glyph unicode="&#x1eb1;" horiz-adv-x="1188" d="M0 0v0v0v0v0v0v0v0v0v0v0v0v0v0v0v0v0v0v0v0v0v0v0v0zM0 0v0v0v0v0v0v0v0v0v0zM0 0v0v0v0v0v0v0v0v0v0v0v0v0v0v0v0v0v0v0zM0 0v0v0v0v0v0v0z" />
<glyph unicode="&#x1eb2;" d="M0 0v0v0v0v0v0v0v0v0v0v0v0v0v0v0v0v0zM0 0v0v0v0v0zM0 0v0v0v0v0v0v0v0v0v0v0v0v0v0v0v0v0v0v0zM0 0v0v0v0v0v0v0v0v0v0v0v0v0v0v0v0v0v0v0v0v0v0v0v0v0v0v0v0v0v0v0v0z" />
<glyph unicode="&#x1eb3;" horiz-adv-x="1188" d="M0 0v0v0v0v0v0v0v0v0v0v0v0v0v0v0v0v0v0v0v0v0v0v0v0zM0 0v0v0v0v0v0v0v0v0v0zM0 0v0v0v0v0v0v0v0v0v0v0v0v0v0v0v0v0v0v0zM0 0v0v0v0v0v0v0v0v0v0v0v0v0v0v0v0v0v0v0v0v0v0v0v0v0v0v0v0v0v0v0v0z" />
<glyph unicode="&#x1eb4;" d="M0 0v0v0v0v0v0v0v0v0v0v0v0v0v0v0v0v0zM0 0v0v0v0v0zM0 0v0v0v0v0v0v0v0v0v0v0v0v0v0v0v0v0v0v0zM0 0v0v0v0v0v0v0v0v0v0v0v0v0v0v0v0v0v0v0v0v0v0v0z" />
<glyph unicode="&#x1eb5;" horiz-adv-x="1188" d="M0 0v0v0v0v0v0v0v0v0v0v0v0v0v0v0v0v0v0v0v0v0v0v0v0zM0 0v0v0v0v0v0v0v0v0v0zM0 0v0v0v0v0v0v0v0v0v0v0v0v0v0v0v0v0v0v0zM0 0v0v0v0v0v0v0v0v0v0v0v0v0v0v0v0v0v0v0v0v0z" />
<glyph unicode="&#x1eb6;" d="M0 0v0v0v0v0v0v0v0v0v0v0v0v0v0v0v0v0zM0 0v0v0v0v0zM0 0v0v0v0v0v0v0v0v0v0v0v0v0v0v0v0v0zM0 0v0v0v0v0v0v0v0v0v0v0v0v0v0v0v0v0v0v0z" />
<glyph unicode="&#x1eb7;" horiz-adv-x="1188" d="M0 0v0v0v0v0v0v0v0v0v0v0v0v0v0v0v0v0v0v0v0v0v0v0v0zM0 0v0v0v0v0v0v0v0v0v0zM0 0v0v0v0v0v0v0v0v0v0v0v0v0v0v0v0v0zM0 0v0v0v0v0v0v0v0v0v0v0v0v0v0v0v0v0v0v0z" />
<glyph unicode="&#x1eb8;" horiz-adv-x="1203" d="M0 0v0v0v0v0v0v0v0v0v0v0v0v0v0v0v0v0v0v0v0v0v0v0v0v0zM0 0v0v0v0v0v0v0v0v0v0v0v0v0v0v0v0v0z" />
<glyph unicode="&#x1eb9;" horiz-adv-x="1078" d="M0 0v0v0v0v0v0v0v0v0v0v0v0v0v0v0v0v0v0zM0 0v0v0v0v0v0v0v0zM0 0v0v0v0v0v0v0v0v0v0v0v0v0v0v0v0v0z" />
<glyph unicode="&#x1eba;" horiz-adv-x="1203" d="M0 0v0v0v0v0v0v0v0v0v0v0v0v0v0v0v0v0v0v0v0v0v0v0v0v0zM0 0v0v0v0v0v0v0v0v0v0v0v0v0v0v0v0v0v0v0v0v0v0v0v0v0v0v0v0v0v0v0v0z" />
<glyph unicode="&#x1ebb;" horiz-adv-x="1078" d="M0 0v0v0v0v0v0v0v0v0v0v0v0v0v0v0v0v0v0zM0 0v0v0v0v0v0v0v0zM0 0v0v0v0v0v0v0v0v0v0v0v0v0v0v0v0v0v0v0v0v0v0v0v0v0v0v0v0v0v0v0v0z" />
<glyph unicode="&#x1ebc;" horiz-adv-x="1203" d="M0 0v0v0v0v0v0v0v0v0v0v0v0v0v0v0v0v0v0v0v0v0v0v0v0v0zM0 0v0v0v0v0v0v0v0v0v0v0v0v0v0v0v0v0v0v0v0v0v0v0z" />
<glyph unicode="&#x1ebd;" horiz-adv-x="1078" d="M0 0v0v0v0v0v0v0v0v0v0v0v0v0v0v0v0v0v0zM0 0v0v0v0v0v0v0v0zM0 0v0v0v0v0v0v0v0v0v0v0v0v0v0v0v0v0v0v0v0v0z" />
<glyph unicode="&#x1ebe;" horiz-adv-x="1203" d="M0 0v0v0v0v0v0v0v0v0v0v0v0v0v0v0v0v0v0v0v0v0v0v0v0v0zM0 0v0v0v0v0v0v0v0v0v0zM0 0v0v0v0v0v0v0z" />
<glyph unicode="&#x1ebf;" horiz-adv-x="1078" d="M0 0v0v0v0v0v0v0v0v0v0v0v0v0v0v0v0v0v0zM0 0v0v0v0v0v0v0v0zM0 0v0v0v0v0v0v0v0v0v0zM0 0v0v0v0v0v0v0z" />
<glyph unicode="&#x1ec0;" horiz-adv-x="1203" d="M0 0v0v0v0v0v0v0v0v0v0v0v0v0v0v0v0v0v0v0v0v0v0v0v0v0zM0 0v0v0v0v0v0v0v0v0v0zM0 0v0v0v0v0v0v0z" />
<glyph unicode="&#x1ec1;" horiz-adv-x="1078" d="M0 0v0v0v0v0v0v0v0v0v0v0v0v0v0v0v0v0v0zM0 0v0v0v0v0v0v0v0zM0 0v0v0v0v0v0v0v0v0v0zM0 0v0v0v0v0v0v0z" />
<glyph unicode="&#x1ec2;" horiz-adv-x="1203" d="M0 0v0v0v0v0v0v0v0v0v0v0v0v0v0v0v0v0v0v0v0v0v0v0v0v0zM0 0v0v0v0v0v0v0v0v0v0zM0 0v0v0v0v0v0v0v0v0v0v0v0v0v0v0v0v0v0v0v0v0v0v0v0v0v0v0v0v0v0v0v0z" />
<glyph unicode="&#x1ec3;" horiz-adv-x="1078" d="M0 0v0v0v0v0v0v0v0v0v0v0v0v0v0v0v0v0v0zM0 0v0v0v0v0v0v0v0zM0 0v0v0v0v0v0v0v0v0v0zM0 0v0v0v0v0v0v0v0v0v0v0v0v0v0v0v0v0v0v0v0v0v0v0v0v0v0v0v0v0v0v0v0z" />
<glyph unicode="&#x1ec4;" horiz-adv-x="1203" d="M0 0v0v0v0v0v0v0v0v0v0v0v0v0v0v0v0v0v0v0v0v0v0v0v0v0zM0 0v0v0v0v0v0v0v0v0v0v0v0v0v0v0v0v0v0v0v0v0v0v0zM0 0v0v0v0v0v0v0v0v0v0z" />
<glyph unicode="&#x1ec5;" horiz-adv-x="1078" d="M0 0v0v0v0v0v0v0v0v0v0v0v0v0v0v0v0v0v0zM0 0v0v0v0v0v0v0v0zM0 0v0v0v0v0v0v0v0v0v0v0v0v0v0v0v0v0v0v0v0v0zM0 0v0v0v0v0v0v0v0v0v0z" />
<glyph unicode="&#x1ec6;" horiz-adv-x="1203" d="M0 0v0v0v0v0v0v0v0v0v0v0v0v0v0v0v0v0v0v0v0v0v0v0v0v0zM0 0v0v0v0v0v0v0v0v0v0v0v0v0v0v0v0v0zM0 0v0v0v0v0v0v0v0v0v0z" />
<glyph unicode="&#x1ec7;" horiz-adv-x="1078" d="M0 0v0v0v0v0v0v0v0v0v0v0v0v0v0v0v0v0v0zM0 0v0v0v0v0v0v0v0zM0 0v0v0v0v0v0v0v0v0v0v0v0v0v0v0v0v0zM0 0v0v0v0v0v0v0v0v0v0z" />
<glyph unicode="&#x1ec8;" horiz-adv-x="717" d="M0 0v0v0v0v0v0v0v0v0v0v0v0v0zM0 0v0v0v0v0v0v0v0v0v0v0v0v0v0v0v0v0v0v0v0v0v0v0v0v0v0v0v0v0v0v0v0z" />
<glyph unicode="&#x1ec9;" horiz-adv-x="696" d="M0 0v0v0v0v0v0v0v0v0v0v0zM0 0v0v0v0v0v0v0v0v0v0v0v0v0v0v0v0v0v0v0v0v0v0v0v0v0v0v0v0v0v0v0v0z" />
<glyph unicode="&#x1eca;" horiz-adv-x="717" d="M0 0v0v0v0v0v0v0v0v0v0v0v0v0zM0 0v0v0v0v0v0v0v0v0v0v0v0v0v0v0v0v0z" />
<glyph unicode="&#x1ecb;" horiz-adv-x="696" d="M0 0v0v0v0v0v0v0v0v0v0v0zM0 0v0v0v0v0v0v0v0v0zM0 0v0v0v0v0v0v0v0v0v0v0v0v0v0v0v0v0z" />
<glyph unicode="&#x1ecc;" horiz-adv-x="1407" d="M0 0v0v0v0v0v0v0v0v0v0v0zM0 0v0v0v0v0v0v0v0v0v0v0v0v0v0v0zM0 0v0v0v0v0v0v0v0v0v0v0v0v0v0v0v0v0z" />
<glyph unicode="&#x1ecd;" horiz-adv-x="1168" d="M0 0v0v0v0v0v0v0v0v0v0v0zM0 0v0v0v0v0v0v0v0v0v0v0v0v0v0v0zM0 0v0v0v0v0v0v0v0v0v0v0v0v0v0v0v0v0z" />
<glyph unicode="&#x1ece;" horiz-adv-x="1407" d="M0 0v0v0v0v0v0v0v0v0v0v0zM0 0v0v0v0v0v0v0v0v0v0v0v0v0v0v0zM0 0v0v0v0v0v0v0v0v0v0v0v0v0v0v0v0v0v0v0v0v0v0v0v0v0v0v0v0v0v0v0v0z" />
<glyph unicode="&#x1ecf;" horiz-adv-x="1168" d="M0 0v0v0v0v0v0v0v0v0v0v0zM0 0v0v0v0v0v0v0v0v0v0v0v0v0v0v0zM0 0v0v0v0v0v0v0v0v0v0v0v0v0v0v0v0v0v0v0v0v0v0v0v0v0v0v0v0v0v0v0v0z" />
<glyph unicode="&#x1ed0;" horiz-adv-x="1407" d="M0 0v0v0v0v0v0v0v0v0v0v0zM0 0v0v0v0v0v0v0v0v0v0v0v0v0v0v0zM0 0v0v0v0v0v0v0v0v0v0zM0 0v0v0v0v0v0v0z" />
<glyph unicode="&#x1ed1;" horiz-adv-x="1168" d="M0 0v0v0v0v0v0v0v0v0v0v0zM0 0v0v0v0v0v0v0v0v0v0v0v0v0v0v0zM0 0v0v0v0v0v0v0v0v0v0zM0 0v0v0v0v0v0v0z" />
<glyph unicode="&#x1ed2;" horiz-adv-x="1407" d="M0 0v0v0v0v0v0v0v0v0v0v0zM0 0v0v0v0v0v0v0v0v0v0v0v0v0v0v0zM0 0v0v0v0v0v0v0v0v0v0zM0 0v0v0v0v0v0v0z" />
<glyph unicode="&#x1ed3;" horiz-adv-x="1168" d="M0 0v0v0v0v0v0v0v0v0v0v0zM0 0v0v0v0v0v0v0v0v0v0v0v0v0v0v0zM0 0v0v0v0v0v0v0v0v0v0zM0 0v0v0v0v0v0v0z" />
<glyph unicode="&#x1ed4;" horiz-adv-x="1407" d="M0 0v0v0v0v0v0v0v0v0v0v0zM0 0v0v0v0v0v0v0v0v0v0v0v0v0v0v0zM0 0v0v0v0v0v0v0v0v0v0zM0 0v0v0v0v0v0v0v0v0v0v0v0v0v0v0v0v0v0v0v0v0v0v0v0v0v0v0v0v0v0v0v0z" />
<glyph unicode="&#x1ed5;" horiz-adv-x="1168" d="M0 0v0v0v0v0v0v0v0v0v0v0zM0 0v0v0v0v0v0v0v0v0v0v0v0v0v0v0zM0 0v0v0v0v0v0v0v0v0v0zM0 0v0v0v0v0v0v0v0v0v0v0v0v0v0v0v0v0v0v0v0v0v0v0v0v0v0v0v0v0v0v0v0z" />
<glyph unicode="&#x1ed6;" horiz-adv-x="1407" d="M0 0v0v0v0v0v0v0v0v0v0v0zM0 0v0v0v0v0v0v0v0v0v0v0v0v0v0v0zM0 0v0v0v0v0v0v0v0v0v0v0v0v0v0v0v0v0v0v0v0v0v0v0zM0 0v0v0v0v0v0v0v0v0v0z" />
<glyph unicode="&#x1ed7;" horiz-adv-x="1168" d="M0 0v0v0v0v0v0v0v0v0v0v0zM0 0v0v0v0v0v0v0v0v0v0v0v0v0v0v0zM0 0v0v0v0v0v0v0v0v0v0v0v0v0v0v0v0v0v0v0v0v0zM0 0v0v0v0v0v0v0v0v0v0z" />
<glyph unicode="&#x1ed8;" horiz-adv-x="1407" d="M0 0v0v0v0v0v0v0v0v0v0v0zM0 0v0v0v0v0v0v0v0v0v0v0v0v0v0v0zM0 0v0v0v0v0v0v0v0v0v0v0v0v0v0v0v0v0zM0 0v0v0v0v0v0v0v0v0v0z" />
<glyph unicode="&#x1ed9;" horiz-adv-x="1168" d="M0 0v0v0v0v0v0v0v0v0v0v0zM0 0v0v0v0v0v0v0v0v0v0v0v0v0v0v0zM0 0v0v0v0v0v0v0v0v0v0v0v0v0v0v0v0v0zM0 0v0v0v0v0v0v0v0v0v0z" />
<glyph unicode="&#x1eda;" horiz-adv-x="1500" d="M0 0v0v0v0v0v0v0zM0 0v0v0v0v0v0v0v0v0v0v0v0v0v0v0v0v0v0v0v0v0v0v0v0v0v0v0zM0 0v0v0v0v0v0v0v0v0v0v0v0v0v0v0z" />
<glyph unicode="&#x1edb;" horiz-adv-x="1203" d="M0 0v0v0v0v0v0v0zM0 0v0v0v0v0v0v0v0v0v0v0v0v0v0v0v0v0v0v0v0v0v0v0v0zM0 0v0v0v0v0v0v0v0v0v0v0v0v0v0v0z" />
<glyph unicode="&#x1edc;" horiz-adv-x="1500" d="M0 0v0v0v0v0v0v0zM0 0v0v0v0v0v0v0v0v0v0v0v0v0v0v0v0v0v0v0v0v0v0v0v0v0v0v0zM0 0v0v0v0v0v0v0v0v0v0v0v0v0v0v0z" />
<glyph unicode="&#x1edd;" horiz-adv-x="1203" d="M0 0v0v0v0v0v0v0zM0 0v0v0v0v0v0v0v0v0v0v0v0v0v0v0v0v0v0v0v0v0v0v0v0zM0 0v0v0v0v0v0v0v0v0v0v0v0v0v0v0z" />
<glyph unicode="&#x1ede;" horiz-adv-x="1500" d="M0 0v0v0v0v0v0v0v0v0v0v0v0v0v0v0v0v0v0v0v0v0v0v0v0v0v0v0v0v0v0v0v0zM0 0v0v0v0v0v0v0v0v0v0v0v0v0v0v0v0v0v0v0v0v0v0v0v0v0v0v0zM0 0v0v0v0v0v0v0v0v0v0v0v0v0v0v0z" />
<glyph unicode="&#x1edf;" horiz-adv-x="1203" d="M0 0v0v0v0v0v0v0v0v0v0v0v0v0v0v0v0v0v0v0v0v0v0v0v0v0v0v0v0v0v0v0v0zM0 0v0v0v0v0v0v0v0v0v0v0v0v0v0v0v0v0v0v0v0v0v0v0v0zM0 0v0v0v0v0v0v0v0v0v0v0v0v0v0v0z" />
<glyph unicode="&#x1ee0;" horiz-adv-x="1500" d="M0 0v0v0v0v0v0v0v0v0v0v0v0v0v0v0v0v0v0v0v0v0v0v0zM0 0v0v0v0v0v0v0v0v0v0v0v0v0v0v0v0v0v0v0v0v0v0v0v0v0v0v0zM0 0v0v0v0v0v0v0v0v0v0v0v0v0v0v0z" />
<glyph unicode="&#x1ee1;" horiz-adv-x="1203" d="M0 0v0v0v0v0v0v0v0v0v0v0v0v0v0v0v0v0v0v0v0v0zM0 0v0v0v0v0v0v0v0v0v0v0v0v0v0v0v0v0v0v0v0v0v0v0v0zM0 0v0v0v0v0v0v0v0v0v0v0v0v0v0v0z" />
<glyph unicode="&#x1ee2;" horiz-adv-x="1500" d="M0 0v0v0v0v0v0v0v0v0v0v0v0v0v0v0v0v0zM0 0v0v0v0v0v0v0v0v0v0v0v0v0v0v0v0v0v0v0v0v0v0v0v0v0v0v0zM0 0v0v0v0v0v0v0v0v0v0v0v0v0v0v0z" />
<glyph unicode="&#x1ee3;" horiz-adv-x="1203" d="M0 0v0v0v0v0v0v0v0v0v0v0v0v0v0v0v0v0zM0 0v0v0v0v0v0v0v0v0v0v0v0v0v0v0v0v0v0v0v0v0v0v0v0zM0 0v0v0v0v0v0v0v0v0v0v0v0v0v0v0z" />
<glyph unicode="&#x1ee4;" horiz-adv-x="1400" d="M0 0v0v0v0v0v0v0v0v0v0v0v0v0v0v0v0v0v0v0v0v0v0v0v0v0zM0 0v0v0v0v0v0v0v0v0v0v0v0v0v0v0v0v0z" />
<glyph unicode="&#x1ee5;" horiz-adv-x="1316" d="M0 0v0v0v0v0v0v0v0v0v0v0v0v0v0v0v0v0v0v0v0v0v0v0zM0 0v0v0v0v0v0v0v0v0v0v0v0v0v0v0v0v0z" />
<glyph unicode="&#x1ee6;" horiz-adv-x="1400" d="M0 0v0v0v0v0v0v0v0v0v0v0v0v0v0v0v0v0v0v0v0v0v0v0v0v0zM0 0v0v0v0v0v0v0v0v0v0v0v0v0v0v0v0v0v0v0v0v0v0v0v0v0v0v0v0v0v0v0v0z" />
<glyph unicode="&#x1ee7;" horiz-adv-x="1316" d="M0 0v0v0v0v0v0v0v0v0v0v0v0v0v0v0v0v0v0v0v0v0v0v0zM0 0v0v0v0v0v0v0v0v0v0v0v0v0v0v0v0v0v0v0v0v0v0v0v0v0v0v0v0v0v0v0v0z" />
<glyph unicode="&#x1ee8;" horiz-adv-x="1591" d="M0 0v0v0v0v0v0v0zM0 0v0v0v0v0v0v0v0v0v0v0v0v0v0v0v0v0v0v0v0v0v0v0v0v0v0v0v0v0v0v0v0v0v0v0v0v0v0v0v0v0z" />
<glyph unicode="&#x1ee9;" horiz-adv-x="1433" d="M0 0v0v0v0v0v0v0zM0 0v0v0v0v0v0v0v0v0v0v0v0v0v0v0v0v0v0v0v0v0v0v0v0v0v0v0v0v0v0v0v0v0v0v0v0v0v0v0z" />
<glyph unicode="&#x1eea;" horiz-adv-x="1591" d="M0 0v0v0v0v0v0v0zM0 0v0v0v0v0v0v0v0v0v0v0v0v0v0v0v0v0v0v0v0v0v0v0v0v0v0v0v0v0v0v0v0v0v0v0v0v0v0v0v0v0z" />
<glyph unicode="&#x1eeb;" horiz-adv-x="1433" d="M0 0v0v0v0v0v0v0zM0 0v0v0v0v0v0v0v0v0v0v0v0v0v0v0v0v0v0v0v0v0v0v0v0v0v0v0v0v0v0v0v0v0v0v0v0v0v0v0z" />
<glyph unicode="&#x1eec;" horiz-adv-x="1591" d="M0 0v0v0v0v0v0v0v0v0v0v0v0v0v0v0v0v0v0v0v0v0v0v0v0v0v0v0v0v0v0v0v0zM0 0v0v0v0v0v0v0v0v0v0v0v0v0v0v0v0v0v0v0v0v0v0v0v0v0v0v0v0v0v0v0v0v0v0v0v0v0v0v0v0v0z" />
<glyph unicode="&#x1eed;" horiz-adv-x="1433" d="M0 0v0v0v0v0v0v0v0v0v0v0v0v0v0v0v0v0v0v0v0v0v0v0v0v0v0v0v0v0v0v0v0zM0 0v0v0v0v0v0v0v0v0v0v0v0v0v0v0v0v0v0v0v0v0v0v0v0v0v0v0v0v0v0v0v0v0v0v0v0v0v0v0z" />
<glyph unicode="&#x1eee;" horiz-adv-x="1591" d="M0 0v0v0v0v0v0v0v0v0v0v0v0v0v0v0v0v0v0v0v0v0v0v0zM0 0v0v0v0v0v0v0v0v0v0v0v0v0v0v0v0v0v0v0v0v0v0v0v0v0v0v0v0v0v0v0v0v0v0v0v0v0v0v0v0v0z" />
<glyph unicode="&#x1eef;" horiz-adv-x="1433" d="M0 0v0v0v0v0v0v0v0v0v0v0v0v0v0v0v0v0v0v0v0v0zM0 0v0v0v0v0v0v0v0v0v0v0v0v0v0v0v0v0v0v0v0v0v0v0v0v0v0v0v0v0v0v0v0v0v0v0v0v0v0v0z" />
<glyph unicode="&#x1ef0;" horiz-adv-x="1591" d="M0 0v0v0v0v0v0v0v0v0v0v0v0v0v0v0v0v0zM0 0v0v0v0v0v0v0v0v0v0v0v0v0v0v0v0v0v0v0v0v0v0v0v0v0v0v0v0v0v0v0v0v0v0v0v0v0v0v0v0v0z" />
<glyph unicode="&#x1ef1;" horiz-adv-x="1433" d="M0 0v0v0v0v0v0v0v0v0v0v0v0v0v0v0v0v0zM0 0v0v0v0v0v0v0v0v0v0v0v0v0v0v0v0v0v0v0v0v0v0v0v0v0v0v0v0v0v0v0v0v0v0v0v0v0v0v0z" />
<glyph unicode="&#x1ef2;" horiz-adv-x="1172" d="M0 0v0v0v0v0v0v0v0v0v0v0v0v0v0v0v0v0v0v0v0v0v0zM0 0v0v0v0v0v0v0z" />
<glyph unicode="&#x1ef3;" horiz-adv-x="1104" d="M0 0v0v0v0v0v0v0v0v0v0v0v0v0v0v0v0v0v0v0v0v0v0v0v0v0zM0 0v0v0v0v0v0v0z" />
<glyph unicode="&#x1ef4;" horiz-adv-x="1172" d="M0 0v0v0v0v0v0v0v0v0v0v0v0v0v0v0v0v0v0v0v0v0v0zM0 0v0v0v0v0v0v0v0v0v0v0v0v0v0v0v0v0z" />
<glyph unicode="&#x1ef5;" horiz-adv-x="1104" d="M0 0v0v0v0v0v0v0v0v0v0v0v0v0v0v0v0v0v0v0v0v0v0v0v0v0zM0 0v0v0v0v0v0v0v0v0v0v0v0v0v0v0v0v0z" />
<glyph unicode="&#x1ef6;" horiz-adv-x="1172" d="M0 0v0v0v0v0v0v0v0v0v0v0v0v0v0v0v0v0v0v0v0v0v0zM0 0v0v0v0v0v0v0v0v0v0v0v0v0v0v0v0v0v0v0v0v0v0v0v0v0v0v0v0v0v0v0v0z" />
<glyph unicode="&#x1ef7;" horiz-adv-x="1104" d="M0 0v0v0v0v0v0v0v0v0v0v0v0v0v0v0v0v0v0v0v0v0v0v0v0v0zM0 0v0v0v0v0v0v0v0v0v0v0v0v0v0v0v0v0v0v0v0v0v0v0v0v0v0v0v0v0v0v0v0z" />
<glyph unicode="&#x1ef8;" horiz-adv-x="1172" d="M0 0v0v0v0v0v0v0v0v0v0v0v0v0v0v0v0v0v0v0v0v0v0zM0 0v0v0v0v0v0v0v0v0v0v0v0v0v0v0v0v0v0v0v0v0v0v0z" />
<glyph unicode="&#x1ef9;" horiz-adv-x="1104" d="M0 0v0v0v0v0v0v0v0v0v0v0v0v0v0v0v0v0v0v0v0v0v0v0v0v0zM0 0v0v0v0v0v0v0v0v0v0v0v0v0v0v0v0v0v0v0v0v0z" />
<glyph unicode="&#x2007;" horiz-adv-x="1100" />
<glyph unicode="&#x2010;" horiz-adv-x="949" d="M0 0v0v0v0v0z" />
<glyph unicode="&#x2012;" horiz-adv-x="1100" d="M0 0v0v0v0v0z" />
<glyph unicode="&#x2013;" horiz-adv-x="1121" d="M0 0v0v0v0v0z" />
<glyph unicode="&#x2014;" horiz-adv-x="2115" d="M0 0v0v0v0v0z" />
<glyph unicode="&#x2015;" horiz-adv-x="2515" d="M0 0v0v0v0v0z" />
<glyph unicode="&#x2018;" horiz-adv-x="596" d="M0 0v0v0v0v0v0v0v0v0v0v0v0v0v0v0v0v0v0v0v0v0v0v0v0v0v0z" />
<glyph unicode="&#x2019;" horiz-adv-x="596" d="M0 0v0v0v0v0v0v0v0v0v0v0v0v0v0v0v0v0v0v0v0v0v0v0v0v0v0z" />
<glyph unicode="&#x201a;" horiz-adv-x="596" d="M0 0v0v0v0v0v0v0v0v0v0v0v0v0v0v0v0v0v0v0v0v0v0v0v0v0v0z" />
<glyph unicode="&#x201c;" horiz-adv-x="1012" d="M0 0v0v0v0v0v0v0v0v0v0v0v0v0v0v0v0v0v0v0v0v0v0v0v0v0v0zM0 0v0v0v0v0v0v0v0v0v0v0v0v0v0v0v0v0v0v0v0v0v0v0v0v0v0z" />
<glyph unicode="&#x201d;" horiz-adv-x="1012" d="M0 0v0v0v0v0v0v0v0v0v0v0v0v0v0v0v0v0v0v0v0v0v0v0v0v0v0zM0 0v0v0v0v0v0v0v0v0v0v0v0v0v0v0v0v0v0v0v0v0v0v0v0v0v0z" />
<glyph unicode="&#x201e;" horiz-adv-x="1012" d="M0 0v0v0v0v0v0v0v0v0v0v0v0v0v0v0v0v0v0v0v0v0v0v0v0v0v0zM0 0v0v0v0v0v0v0v0v0v0v0v0v0v0v0v0v0v0v0v0v0v0v0v0v0v0z" />
<glyph unicode="&#x2020;" horiz-adv-x="1093" d="M0 0v0v0v0v0v0v0v0v0v0v0v0v0z" />
<glyph unicode="&#x2021;" horiz-adv-x="1094" d="M0 0v0v0v0v0v0v0v0v0v0v0v0v0v0v0v0v0v0v0v0v0v0v0z" />
<glyph unicode="&#x2022;" horiz-adv-x="757" d="M0 0v0v0v0v0v0v0v0v0v0v0v0v0v0v0v0v0z" />
<glyph unicode="&#x2026;" horiz-adv-x="1919" d="M0 0v0v0v0v0v0v0v0v0v0v0v0v0v0v0v0v0zM0 0v0v0v0v0v0v0v0v0v0v0v0v0v0v0v0v0zM0 0v0v0v0v0v0v0v0v0v0v0v0v0v0v0v0v0z" />
<glyph unicode="&#x2030;" horiz-adv-x="2370" d="M0 0v0v0v0v0v0v0zM0 0v0v0v0v0v0v0v0v0v0v0v0v0v0v0v0v0zM0 0v0v0v0v0v0v0v0v0v0v0v0v0zM0 0v0v0v0v0v0v0v0v0v0v0v0v0v0v0v0v0zM0 0v0v0v0v0v0v0v0v0v0v0v0v0zM0 0v0v0v0v0v0v0v0v0v0v0v0v0v0v0v0v0zM0 0v0v0v0v0v0v0v0v0v0v0v0v0z" />
<glyph unicode="&#x2032;" horiz-adv-x="526" d="M0 0v0v0v0v0v0z" />
<glyph unicode="&#x2033;" horiz-adv-x="797" d="M0 0v0v0v0v0v0zM0 0v0v0v0v0v0z" />
<glyph unicode="&#x2039;" horiz-adv-x="750" d="M0 0v0v0v0v0v0v0v0v0v0v0z" />
<glyph unicode="&#x203a;" horiz-adv-x="750" d="M0 0v0v0v0v0v0v0v0v0v0v0z" />
<glyph unicode="&#x2044;" horiz-adv-x="1324" d="M0 0v0v0v0v0v0v0z" />
<glyph unicode="&#x2070;" horiz-adv-x="624" d="M0 0v0v0v0v0v0v0v0v0v0v0v0v0zM0 0v0v0v0v0v0v0v0v0v0v0v0v0v0v0v0v0v0v0z" />
<glyph unicode="&#x2074;" horiz-adv-x="572" d="M0 0v0v0v0v0v0v0v0v0v0v0v0v0v0v0v0v0v0v0v0z" />
<glyph unicode="&#x2075;" horiz-adv-x="565" d="M0 0v0v0v0v0v0v0v0v0v0v0v0v0v0v0v0v0v0v0v0v0v0v0v0v0v0v0v0v0v0v0v0v0z" />
<glyph unicode="&#x2076;" horiz-adv-x="593" d="M0 0v0v0v0v0v0v0v0v0v0v0v0v0v0v0v0v0v0v0v0v0v0v0v0v0v0v0v0v0v0v0v0v0v0zM0 0v0v0v0v0v0v0v0v0v0v0v0z" />
<glyph unicode="&#x2077;" horiz-adv-x="544" d="M0 0v0v0v0v0v0v0v0v0v0z" />
<glyph unicode="&#x2078;" horiz-adv-x="572" d="M0 0v0v0v0v0v0v0v0v0v0v0v0v0v0v0v0v0v0v0v0v0v0v0v0v0zM0 0v0v0v0v0v0v0v0v0v0zM0 0v0v0v0v0v0v0v0v0z" />
<glyph unicode="&#x2079;" horiz-adv-x="582" d="M0 0v0v0v0v0v0v0v0v0v0v0v0zM0 0v0v0v0v0v0v0v0v0v0v0v0v0v0v0v0v0v0v0v0v0v0v0v0v0v0v0v0v0v0v0v0z" />
<glyph unicode="&#x207d;" horiz-adv-x="397" d="M0 0v0v0v0v0v0v0v0v0v0v0v0v0v0v0v0v0v0v0z" />
<glyph unicode="&#x207e;" horiz-adv-x="397" d="M0 0v0v0v0v0v0v0v0v0v0v0v0v0v0v0v0v0v0v0v0v0z" />
<glyph unicode="&#x207f;" horiz-adv-x="739" d="M0 0v0v0v0v0v0v0v0v0v0v0v0v0v0v0v0v0v0v0v0v0v0v0v0v0v0v0v0v0v0v0v0v0v0z" />
<glyph unicode="&#x2080;" horiz-adv-x="624" d="M0 0v0v0v0v0v0v0v0v0v0v0v0v0zM0 0v0v0v0v0v0v0v0v0v0v0v0v0v0v0v0v0v0v0z" />
<glyph unicode="&#x2081;" horiz-adv-x="446" d="M0 0v0v0v0v0v0v0v0v0v0v0v0z" />
<glyph unicode="&#x2082;" horiz-adv-x="581" d="M0 0v0v0v0v0v0v0v0v0v0v0v0v0v0v0v0v0v0v0v0v0v0v0v0v0v0v0v0v0v0v0z" />
<glyph unicode="&#x2083;" horiz-adv-x="548" d="M0 0v0v0v0v0v0v0v0v0v0v0v0v0v0v0v0v0v0v0v0v0v0v0v0v0v0v0v0v0v0v0v0v0v0v0v0v0v0v0v0v0v0v0v0v0v0z" />
<glyph unicode="&#x2084;" horiz-adv-x="572" d="M0 0v0v0v0v0v0v0v0v0v0v0v0v0v0v0v0v0v0v0v0z" />
<glyph unicode="&#x2085;" horiz-adv-x="565" d="M0 0v0v0v0v0v0v0v0v0v0v0v0v0v0v0v0v0v0v0v0v0v0v0v0v0v0v0v0v0v0v0v0v0z" />
<glyph unicode="&#x2086;" horiz-adv-x="593" d="M0 0v0v0v0v0v0v0v0v0v0v0v0v0v0v0v0v0v0v0v0v0v0v0v0v0v0v0v0v0v0v0v0v0v0zM0 0v0v0v0v0v0v0v0v0v0v0v0z" />
<glyph unicode="&#x2087;" horiz-adv-x="544" d="M0 0v0v0v0v0v0v0v0v0v0z" />
<glyph unicode="&#x2088;" horiz-adv-x="572" d="M0 0v0v0v0v0v0v0v0v0v0v0v0v0v0v0v0v0v0v0v0v0v0v0v0v0zM0 0v0v0v0v0v0v0v0v0v0zM0 0v0v0v0v0v0v0v0v0z" />
<glyph unicode="&#x2089;" horiz-adv-x="582" d="M0 0v0v0v0v0v0v0v0v0v0v0v0zM0 0v0v0v0v0v0v0v0v0v0v0v0v0v0v0v0v0v0v0v0v0v0v0v0v0v0v0v0v0v0v0v0z" />
<glyph unicode="&#x208d;" horiz-adv-x="397" d="M0 0v0v0v0v0v0v0v0v0v0v0v0v0v0v0v0v0v0v0z" />
<glyph unicode="&#x208e;" horiz-adv-x="397" d="M0 0v0v0v0v0v0v0v0v0v0v0v0v0v0v0v0v0v0v0v0v0z" />
<glyph unicode="&#x20a1;" horiz-adv-x="1243" d="M0 0v0v0v0v0v0v0v0v0v0v0v0v0v0v0v0v0v0v0v0v0v0v0v0v0v0v0v0v0v0v0v0v0v0v0v0v0v0v0v0v0v0zM0 0v0v0v0v0v0v0zM0 0v0v0v0v0v0v0v0v0v0v0z" />
<glyph unicode="&#x20a3;" horiz-adv-x="1083" d="M0 0v0v0v0v0v0v0v0v0v0v0v0v0v0v0v0v0v0v0v0v0v0v0v0v0v0v0v0v0v0v0z" />
<glyph unicode="&#x20a4;" horiz-adv-x="1189" d="M0 0v0v0v0v0v0v0v0v0v0v0v0v0v0v0v0v0v0v0v0v0v0v0v0v0v0v0v0v0v0v0v0v0v0v0v0v0v0v0v0v0v0v0v0v0v0v0v0v0v0v0v0v0v0v0v0v0v0v0z" />
<glyph unicode="&#x20a6;" horiz-adv-x="1579" d="M0 0v0v0v0v0v0v0v0v0v0v0v0v0v0v0v0v0v0v0v0v0v0v0v0v0v0v0v0v0v0v0v0v0v0v0v0v0v0v0zM0 0v0v0v0v0zM0 0v0v0v0v0zM0 0v0v0v0v0zM0 0v0v0v0v0z" />
<glyph unicode="&#x20a7;" horiz-adv-x="2754" d="M0 0v0v0v0v0v0v0v0v0v0v0v0v0v0v0v0v0v0v0v0v0v0v0v0v0v0v0v0v0v0v0v0v0v0v0v0v0v0v0v0v0v0v0v0v0v0v0v0v0v0v0v0v0v0v0v0v0v0v0v0v0v0v0v0v0v0v0v0v0v0v0v0v0v0v0v0v0v0v0v0v0v0v0v0v0v0v0v0v0v0v0v0v0v0v0v0v0v0v0zM0 0v0v0v0v0v0v0v0v0v0v0v0v0v0z" />
<glyph unicode="&#x20ab;" horiz-adv-x="1165" d="M0 0v0v0v0v0v0v0v0v0v0v0v0v0v0v0v0v0v0v0v0v0v0v0v0v0v0v0v0v0v0v0v0v0zM0 0v0v0v0v0v0v0v0v0v0v0v0v0v0v0v0v0v0zM0 0v0v0v0v0z" />
<glyph unicode="&#x20ac;" horiz-adv-x="1271" d="M0 0v0v0v0v0v0v0v0v0v0v0v0v0v0v0v0v0v0v0v0v0v0v0v0v0v0v0v0v0v0v0v0v0v0v0v0v0v0v0v0v0v0v0v0v0v0v0v0v0z" />
<glyph unicode="&#x20b1;" horiz-adv-x="1278" d="M0 0v0v0v0v0v0v0v0v0v0v0v0v0v0v0v0v0v0v0v0v0v0v0v0v0v0v0v0v0v0v0v0zM0 0v0v0v0v0v0zM0 0v0v0v0v0v0v0zM0 0v0v0v0v0z" />
<glyph unicode="&#x20b2;" horiz-adv-x="1330" d="M0 0v0v0v0v0v0v0v0v0v0v0v0v0v0v0v0v0v0v0v0v0v0v0v0v0v0v0v0v0v0v0v0v0v0zM0 0v0v0v0v0v0v0v0z" />
<glyph unicode="&#x20b5;" horiz-adv-x="1186" d="M0 0v0v0v0v0v0v0v0v0v0v0v0v0v0v0v0v0v0v0v0v0v0v0v0v0v0zM0 0v0v0v0v0v0v0v0v0z" />
<glyph unicode="&#x20b9;" horiz-adv-x="1058" d="M0 0v0v0v0v0v0v0v0v0v0v0v0v0v0v0v0v0v0v0v0v0v0v0v0v0v0v0v0v0v0v0v0v0v0v0z" />
<glyph unicode="&#x2113;" horiz-adv-x="1113" d="M0 0v0v0v0v0v0v0v0v0v0v0v0v0v0v0v0v0v0v0v0v0v0v0v0v0v0v0v0v0v0v0v0v0v0v0v0v0v0v0v0v0v0v0zM0 0v0v0v0v0v0v0v0v0v0v0v0v0v0v0v0v0z" />
<glyph unicode="&#x2117;" horiz-adv-x="1347" d="M0 0v0v0v0v0v0v0v0v0v0v0v0v0v0v0v0v0v0v0zM0 0v0v0v0v0v0v0v0v0v0v0v0v0v0v0v0v0zM0 0v0v0v0v0v0v0v0v0v0v0v0v0v0v0v0v0v0zM0 0v0v0v0v0v0v0v0v0v0v0v0z" />
<glyph unicode="&#x2120;" horiz-adv-x="1759" d="M0 0v0v0v0v0v0v0v0v0v0v0v0v0v0v0v0v0v0v0v0v0v0v0v0v0v0zM0 0v0v0v0v0v0v0v0v0v0v0v0v0v0v0v0v0v0v0v0v0v0v0v0v0v0v0v0v0v0v0v0v0v0v0v0v0v0v0v0v0v0v0v0v0v0v0v0v0v0v0z" />
<glyph unicode="&#x2122;" horiz-adv-x="1842" d="M0 0v0v0v0v0v0v0v0v0v0v0v0v0v0v0v0v0v0v0v0v0v0v0v0v0v0zM0 0v0v0v0v0v0v0v0v0v0v0v0v0v0v0v0v0z" />
<glyph unicode="&#x2126;" horiz-adv-x="1739" d="M0 0v0v0v0v0v0v0v0v0v0v0v0v0v0v0v0v0v0v0v0v0v0v0v0v0v0v0v0v0v0v0v0v0v0v0v0v0v0v0v0v0v0v0v0v0v0v0v0v0v0v0z" />
<glyph unicode="&#x212e;" horiz-adv-x="1248" d="M0 0v0v0v0v0v0v0v0v0v0v0v0v0v0v0v0v0v0v0v0v0v0v0v0v0v0v0v0v0v0zM0 0v0v0v0v0v0v0v0v0v0z" />
<glyph unicode="&#x2153;" horiz-adv-x="1339" d="M0 0v0v0v0v0v0v0v0v0v0v0v0zM0 0v0v0v0v0v0v0zM0 0v0v0v0v0v0v0v0v0v0v0v0v0v0v0v0v0v0v0v0v0v0v0v0v0v0v0v0v0v0v0v0v0v0v0v0v0v0v0v0v0v0v0v0v0v0z" />
<glyph unicode="&#x2154;" horiz-adv-x="1339" d="M0 0v0v0v0v0v0v0v0v0v0v0v0v0v0v0v0v0v0v0v0v0v0v0v0v0v0v0v0v0v0v0zM0 0v0v0v0v0v0v0zM0 0v0v0v0v0v0v0v0v0v0v0v0v0v0v0v0v0v0v0v0v0v0v0v0v0v0v0v0v0v0v0v0v0v0v0v0v0v0v0v0v0v0v0v0v0v0z" />
<glyph unicode="&#x215b;" horiz-adv-x="1339" d="M0 0v0v0v0v0v0v0v0v0v0v0v0zM0 0v0v0v0v0v0v0zM0 0v0v0v0v0v0v0v0v0v0v0v0v0v0v0v0v0v0v0v0v0v0v0v0v0zM0 0v0v0v0v0v0v0v0v0v0zM0 0v0v0v0v0v0v0v0v0z" />
<glyph unicode="&#x215c;" horiz-adv-x="1339" d="M0 0v0v0v0v0v0v0v0v0v0v0v0v0v0v0v0v0v0v0v0v0v0v0v0v0v0v0v0v0v0v0v0v0v0v0v0v0v0v0v0v0v0v0v0v0v0zM0 0v0v0v0v0v0v0zM0 0v0v0v0v0v0v0v0v0v0v0v0v0v0v0v0v0v0v0v0v0v0v0v0v0zM0 0v0v0v0v0v0v0v0v0v0zM0 0v0v0v0v0v0v0v0v0z" />
<glyph unicode="&#x215d;" horiz-adv-x="1339" d="M0 0v0v0v0v0v0v0v0v0v0v0v0v0v0v0v0v0v0v0v0v0v0v0v0v0v0v0v0v0v0v0v0v0zM0 0v0v0v0v0v0v0zM0 0v0v0v0v0v0v0v0v0v0v0v0v0v0v0v0v0v0v0v0v0v0v0v0v0zM0 0v0v0v0v0v0v0v0v0v0zM0 0v0v0v0v0v0v0v0v0z" />
<glyph unicode="&#x215e;" horiz-adv-x="1339" d="M0 0v0v0v0v0v0v0v0v0v0zM0 0v0v0v0v0v0v0zM0 0v0v0v0v0v0v0v0v0v0v0v0v0v0v0v0v0v0v0v0v0v0v0v0v0zM0 0v0v0v0v0v0v0v0v0v0zM0 0v0v0v0v0v0v0v0v0z" />
<glyph unicode="&#x2190;" horiz-adv-x="2145" d="M0 0v0v0v0v0v0v0v0v0v0v0z" />
<glyph unicode="&#x2191;" horiz-adv-x="743" d="M0 0v0v0v0v0v0v0v0v0v0v0z" />
<glyph unicode="&#x2192;" horiz-adv-x="2145" d="M0 0v0v0v0v0v0v0v0v0v0v0z" />
<glyph unicode="&#x2193;" horiz-adv-x="743" d="M0 0v0v0v0v0v0v0v0v0v0v0z" />
<glyph unicode="&#x2202;" horiz-adv-x="1176" d="M0 0v0v0v0v0v0v0v0v0v0v0v0v0v0v0v0v0v0v0v0v0v0v0v0v0v0v0v0v0v0v0v0v0v0v0v0zM0 0v0v0v0v0v0v0v0v0v0v0v0v0v0v0v0v0v0v0v0v0v0v0z" />
<glyph unicode="&#x2206;" horiz-adv-x="1415" d="M0 0v0v0v0v0zM0 0v0v0v0v0z" />
<glyph unicode="&#x220f;" horiz-adv-x="1551" d="M0 0v0v0v0v0v0v0v0v0v0v0v0v0z" />
<glyph unicode="&#x2211;" horiz-adv-x="1356" d="M0 0v0v0v0v0v0v0v0v0v0v0v0v0v0v0v0v0v0v0z" />
<glyph unicode="&#x2212;" horiz-adv-x="1053" d="M0 0v0v0v0v0z" />
<glyph unicode="&#x2215;" horiz-adv-x="1324" d="M0 0v0v0v0v0v0v0z" />
<glyph unicode="&#x2219;" horiz-adv-x="757" d="M0 0v0v0v0v0v0v0v0v0v0v0v0v0v0v0v0v0z" />
<glyph unicode="&#x221a;" horiz-adv-x="1318" d="M0 0v0v0v0v0v0v0v0v0v0v0z" />
<glyph unicode="&#x221e;" horiz-adv-x="2259" d="M0 0v0v0v0v0v0v0v0v0v0v0v0v0v0v0v0v0v0v0v0v0v0v0v0v0v0v0v0v0v0v0v0v0zM0 0v0v0v0v0v0v0v0v0v0v0v0v0v0v0v0v0v0v0zM0 0v0v0v0v0v0v0v0v0v0v0v0v0v0v0v0v0v0v0z" />
<glyph unicode="&#x222b;" horiz-adv-x="822" d="M0 0v0v0v0v0v0v0v0v0v0v0v0v0v0v0v0v0v0v0v0v0v0v0v0v0v0v0v0v0v0v0z" />
<glyph unicode="&#x2248;" horiz-adv-x="1281" d="M0 0v0v0v0v0v0v0v0v0v0v0v0v0v0v0v0v0v0v0v0v0v0v0v0v0v0v0v0v0v0v0v0v0zM0 0v0v0v0v0v0v0v0v0v0v0v0v0v0v0v0v0v0v0v0v0v0v0v0v0v0v0v0v0v0v0v0v0z" />
<glyph unicode="&#x2260;" horiz-adv-x="1162" d="M0 0v0v0v0v0v0v0v0v0v0v0v0v0v0v0v0v0v0v0v0v0v0v0z" />
<glyph unicode="&#x2264;" horiz-adv-x="1128" d="M0 0v0v0v0v0zM0 0v0v0v0v0v0v0v0v0v0v0z" />
<glyph unicode="&#x2265;" horiz-adv-x="1128" d="M0 0v0v0v0v0zM0 0v0v0v0v0v0v0v0v0v0v0z" />
<glyph unicode="&#x24c5;" horiz-adv-x="1822" d="M0 0v0v0v0v0v0v0v0v0v0v0v0v0v0v0v0v0v0v0v0v0v0v0v0v0zM0 0v0v0v0v0v0v0v0v0v0v0v0v0v0v0v0v0zM0 0v0v0v0v0v0v0v0v0v0v0v0v0v0v0v0v0v0v0v0zM0 0v0v0v0v0v0v0v0v0v0v0v0z" />
<glyph unicode="&#x25a0;" horiz-adv-x="1525" d="M0 0v0v0v0v0z" />
<glyph unicode="&#x25b2;" horiz-adv-x="1610" d="M0 0v0v0v0z" />
<glyph unicode="&#x25b3;" horiz-adv-x="1610" d="M0 0v0v0v0zM0 0v0v0v0z" />
<glyph unicode="&#x25b6;" horiz-adv-x="1709" d="M0 0v0v0v0z" />
<glyph unicode="&#x25b7;" horiz-adv-x="1709" d="M0 0v0v0v0zM0 0v0v0v0z" />
<glyph unicode="&#x25bc;" horiz-adv-x="1610" d="M0 0v0v0v0z" />
<glyph unicode="&#x25bd;" horiz-adv-x="1610" d="M0 0v0v0v0zM0 0v0v0v0z" />
<glyph unicode="&#x25c0;" horiz-adv-x="1709" d="M0 0v0v0v0z" />
<glyph unicode="&#x25c1;" horiz-adv-x="1709" d="M0 0v0v0v0zM0 0v0v0v0z" />
<glyph unicode="&#x25c6;" horiz-adv-x="1695" d="M0 0v0v0v0v0z" />
<glyph unicode="&#x25ca;" horiz-adv-x="1319" d="M0 0v0v0v0v0v0v0v0v0zM0 0v0v0v0v0v0v0z" />
<glyph unicode="&#x25fc;" horiz-adv-x="1085" d="M0 0v0v0v0v0z" />
<glyph unicode="&#xf6c3;" horiz-adv-x="266" d="M0 0v0v0v0v0v0z" />
<glyph unicode="&#xf6d7;" horiz-adv-x="706" d="M0 0v0v0v0v0v0v0v0v0v0v0v0v0v0v0v0v0zM0 0v0v0v0v0v0v0v0v0v0v0v0v0v0v0v0v0zM0 0v0v0v0v0v0v0z" />
<glyph unicode="&#xf6d8;" horiz-adv-x="706" d="M0 0v0v0v0v0v0v0v0v0v0v0v0v0v0v0v0v0zM0 0v0v0v0v0v0v0v0v0v0v0v0v0v0v0v0v0zM0 0v0v0v0v0v0v0z" />
<glyph unicode="&#xf8ff;" horiz-adv-x="2375" d="M0 0v0v0v0v0zM0 0v0v0v0v0v0v0v0v0v0v0v0v0v0v0v0v0v0v0v0v0v0v0v0v0v0v0v0v0v0v0v0v0v0v0v0v0v0v0v0v0v0v0v0v0v0v0v0v0v0v0v0v0v0v0v0zM0 0v0v0v0v0v0v0v0v0v0v0v0v0v0v0z" />
<glyph unicode="&#xfb01;" horiz-adv-x="1396" d="M0 0v0v0v0v0v0v0v0v0v0v0v0v0v0v0v0v0v0v0v0v0v0v0v0v0zM0 0v0v0v0v0v0v0v0v0v0v0zM0 0v0v0v0v0v0v0v0v0z" />
<glyph unicode="&#xfb02;" horiz-adv-x="1376" d="M0 0v0v0v0v0v0v0v0v0v0v0v0v0v0v0v0v0v0v0v0v0v0v0v0v0zM0 0v0v0v0v0v0v0v0v0v0v0z" />
<glyph horiz-adv-x="0" />
<glyph horiz-adv-x="550" d="M0 0v0v0v0v0v0v0z" />
<glyph horiz-adv-x="550" d="M0 0v0v0v0v0v0v0v0v0v0v0v0v0v0v0v0v0zM0 0v0v0v0v0v0v0v0v0v0v0v0v0v0v0v0v0z" />
<glyph horiz-adv-x="550" d="M0 0v0v0v0v0v0v0z" />
<glyph horiz-adv-x="550" d="M0 0v0v0v0v0v0v0v0v0v0z" />
<glyph horiz-adv-x="550" d="M0 0v0v0v0v0v0v0v0v0v0z" />
<glyph horiz-adv-x="550" d="M0 0v0v0v0v0v0v0v0v0v0v0v0v0v0v0v0v0v0v0v0v0v0v0z" />
<glyph horiz-adv-x="550" d="M0 0v0v0v0v0z" />
<glyph horiz-adv-x="550" d="M0 0v0v0v0v0v0v0v0v0v0v0v0v0v0v0v0v0zM0 0v0v0v0v0v0v0v0v0v0v0v0v0v0v0v0v0z" />
<glyph horiz-adv-x="550" d="M0 0v0v0v0v0v0v0v0v0v0v0v0v0v0v0v0v0v0v0z" />
<glyph horiz-adv-x="550" d="M0 0v0v0v0v0v0v0v0v0v0v0v0v0v0v0v0v0z" />
<glyph horiz-adv-x="550" d="M0 0v0v0v0v0v0v0zM0 0v0v0v0v0v0v0z" />
<glyph horiz-adv-x="696" d="M0 0v0v0v0v0v0v0v0v0v0v0z" />
<glyph horiz-adv-x="706" d="M0 0v0v0v0v0v0v0v0v0v0v0v0v0v0v0v0v0zM0 0v0v0v0v0v0v0v0v0v0v0v0v0v0v0v0v0zM0 0v0v0v0v0z" />
<glyph horiz-adv-x="550" d="M0 0v0v0v0v0v0v0v0v0v0v0v0v0v0v0v0v0zM0 0v0v0v0v0v0v0v0v0v0v0v0v0v0v0v0v0zM0 0v0v0v0v0z" />
<glyph horiz-adv-x="550" d="M0 0v0v0v0v0v0v0v0v0v0v0v0v0v0v0v0v0zM0 0v0v0v0v0v0v0v0v0v0v0v0v0v0v0v0v0zM0 0v0v0v0v0v0v0z" />
<glyph horiz-adv-x="706" d="M0 0v0v0v0v0v0v0v0v0v0zM0 0v0v0v0v0v0v0v0v0v0v0v0v0v0v0v0v0zM0 0v0v0v0v0v0v0v0v0v0v0v0v0v0v0v0v0z" />
<glyph horiz-adv-x="550" d="M0 0v0v0v0v0v0v0v0v0v0zM0 0v0v0v0v0v0v0v0v0v0v0v0v0v0v0v0v0zM0 0v0v0v0v0v0v0v0v0v0v0v0v0v0v0v0v0z" />
<glyph horiz-adv-x="550" d="M0 0v0v0v0v0v0v0v0v0v0v0v0v0v0v0v0v0zM0 0v0v0v0v0v0v0v0v0v0v0v0v0v0v0v0v0zM0 0v0v0v0v0v0v0z" />
<glyph horiz-adv-x="266" d="M0 0v0v0v0v0v0z" />
<glyph horiz-adv-x="914" d="M0 0v0v0v0v0v0v0v0v0v0v0v0v0v0v0v0v0v0v0v0v0zM0 0v0v0v0v0v0v0v0v0v0z" />
<glyph horiz-adv-x="550" d="M0 0v0v0v0v0v0v0v0v0v0zM0 0v0v0v0v0v0v0z" />
<glyph horiz-adv-x="550" d="M0 0v0v0v0v0v0v0v0v0v0zM0 0v0v0v0v0v0v0z" />
<glyph horiz-adv-x="550" d="M0 0v0v0v0v0v0v0v0v0v0v0v0v0v0v0v0v0v0v0v0v0v0v0zM0 0v0v0v0v0v0v0v0v0v0z" />
<glyph horiz-adv-x="852" d="M0 0v0v0v0v0v0v0v0v0v0v0v0v0v0v0v0v0v0v0zM0 0v0v0v0v0v0v0v0v0v0v0v0v0v0v0v0v0v0v0v0v0z" />
<glyph horiz-adv-x="852" d="M0 0v0v0v0v0v0v0v0v0v0v0v0v0v0v0v0v0v0v0zM0 0v0v0v0v0v0v0v0v0v0v0v0v0v0v0v0v0v0v0v0v0v0v0v0v0v0v0v0v0v0v0v0z" />
<glyph horiz-adv-x="550" d="M0 0v0v0v0v0v0v0v0v0v0v0v0v0v0v0v0v0v0v0zM0 0v0v0v0v0v0v0z" />
<glyph horiz-adv-x="550" d="M0 0v0v0v0v0v0v0v0v0v0v0v0v0v0v0v0v0v0v0zM0 0v0v0v0v0v0v0z" />
<glyph horiz-adv-x="550" d="M0 0v0v0v0v0v0v0v0v0v0v0v0v0v0v0v0v0v0v0zM0 0v0v0v0v0v0v0v0v0v0v0v0v0v0v0v0v0v0v0v0v0v0v0z" />
<glyph horiz-adv-x="550" d="M0 0v0v0v0v0v0v0v0v0v0v0v0v0v0v0v0v0v0v0zM0 0v0v0v0v0v0v0v0v0v0v0v0v0v0v0v0v0v0v0v0v0v0v0v0v0v0v0v0v0v0v0v0z" />
<glyph horiz-adv-x="914" d="M0 0v0v0v0v0v0v0v0v0v0zM0 0v0v0v0v0v0v0v0v0v0v0v0v0v0v0v0v0v0v0v0v0v0v0v0v0v0v0v0v0v0v0v0z" />
<glyph horiz-adv-x="550" d="M0 0v0v0v0v0v0v0v0v0v0zM0 0v0v0v0v0v0v0v0v0v0v0v0v0v0v0v0v0v0v0v0v0v0v0v0v0v0v0v0v0v0v0v0z" />
<glyph horiz-adv-x="1083" d="M0 0v0v0v0v0v0v0v0v0v0v0v0v0v0v0v0v0v0v0v0v0v0v0v0v0v0v0v0v0v0v0v0v0v0v0v0zM0 0v0v0v0v0v0v0v0v0v0v0v0v0zM0 0v0v0v0v0v0v0v0v0v0v0v0v0v0v0zM0 0v0v0v0v0v0v0v0v0v0v0v0v0v0v0v0v0v0v0v0v0z" />
<glyph horiz-adv-x="1330" d="M0 0v0v0v0v0v0v0v0v0v0v0v0v0v0v0v0v0v0v0v0v0v0v0v0v0v0v0v0v0v0v0zM0 0v0v0v0v0v0v0v0v0v0v0v0v0v0v0v0v0v0v0v0v0v0v0z" />
<glyph horiz-adv-x="914" d="M0 0v0v0v0v0v0v0v0v0v0zM0 0v0v0v0v0v0v0z" />
<glyph horiz-adv-x="914" d="M0 0v0v0v0v0v0v0v0v0v0zM0 0v0v0v0v0v0v0z" />
<glyph horiz-adv-x="852" d="M0 0v0v0v0v0v0v0v0v0v0v0v0v0v0v0v0v0v0v0zM0 0v0v0v0v0v0v0z" />
<glyph horiz-adv-x="852" d="M0 0v0v0v0v0v0v0v0v0v0v0v0v0v0v0v0v0v0v0zM0 0v0v0v0v0v0v0z" />
</font>
</defs>
</svg>
